<svg width="266" height="345" viewBox="0 0 266 345" fill="none" xmlns="http://www.w3.org/2000/svg">
<path d="M0 65H80.2425C146.517 65 200.242 118.726 200.242 185V345H120C53.7257 345 0 291.274 0 225V65Z" fill="#4C5C59"/>
<path d="M163.424 40.9443V30.4243C163.424 13.6216 149.802 0 132.999 0C116.196 0 102.575 13.6216 102.575 30.4243V40.9443C102.575 43.9607 105.02 46.4061 108.037 46.4061H157.961C160.978 46.4061 163.424 43.9607 163.424 40.9443Z" fill="#FCB44D"/>
<path d="M150.161 30.427V46.4067H157.96C160.977 46.4067 163.422 43.9613 163.422 40.9449V30.9345C163.422 14.0804 149.633 -0.115251 132.78 0.00268271C130.577 0.0182686 128.435 0.266085 126.367 0.727948C139.983 3.75474 150.161 15.9035 150.161 30.427Z" fill="#FCA62F"/>
<path d="M156.916 65.5139L144.321 61.6979V46.1821H121.679V61.6979L109.084 65.5139C105.999 66.4454 54.5519 88.4668 27.3518 133.225L36.852 140.757C36.852 140.757 61.484 114.751 87.3997 101.088C87.8995 105.772 89.4368 110.904 92.5104 116.378C85.5133 122.998 80.1383 131.61 77.0382 141.94H188.962C185.862 131.61 180.487 122.998 173.49 116.378C176.564 110.904 178.101 105.772 178.601 101.088C204.517 114.751 229.149 140.757 229.149 140.757L238.649 133.225C211.448 88.4668 160 66.4454 156.916 65.5139Z" fill="#FDB0A0"/>
<path d="M191.948 163.218C191.948 190.123 163.544 239.919 146.166 263.795C145.16 265.181 143.549 266 141.836 266H124.163C122.45 266 120.84 265.181 119.834 263.795C102.455 239.919 74.0514 190.123 74.0514 163.218C74.0514 162.324 74.0727 161.441 74.0997 160.563H191.9C191.927 161.441 191.948 162.324 191.948 163.218Z" fill="#FDB0A0"/>
<path d="M87.5046 121.804C89.4628 126.273 92.5098 128.009 92.5098 128.009C113.289 141.425 132.999 125.278 132.999 125.278C132.999 125.278 147.146 136.862 164.104 132.247C167.51 131.319 171.04 133.181 172.361 136.454C173.075 138.223 173.713 140.054 174.279 141.94H188.961C185.861 131.61 180.486 122.998 173.489 116.378C174.931 113.804 176.036 111.309 176.853 108.898C176.852 108.898 176.851 108.897 176.85 108.897C177.08 108.22 177.289 107.55 177.474 106.888C171.864 99.1037 157.221 91.0878 133 102.898C108.779 91.0878 94.1365 99.1037 88.526 106.888C89.3682 109.909 90.6577 113.083 92.5103 116.378C90.7366 118.057 89.0627 119.867 87.5046 121.804Z" fill="#F89F8E"/>
<path d="M177.222 160.561C177.25 161.44 177.269 162.324 177.269 163.22C177.269 190.983 147.022 243.126 129.858 266H141.837C143.552 266 145.159 265.18 146.168 263.793C163.545 239.922 191.949 190.124 191.949 163.221C191.949 162.325 191.929 161.44 191.901 160.561H177.222V160.561Z" fill="#F89F8E"/>
<path d="M156.916 65.5139L144.321 61.6979V46.1821H121.679V56.7556C123.767 58.5579 126.29 59.8702 129.07 60.515C131.003 60.9633 132.368 62.6887 132.368 64.6728C132.368 66.7005 133.695 68.4892 135.636 69.0774L144.957 71.9026C147.963 72.8076 196.737 93.6766 224.427 136.024C227.432 138.945 229.148 140.756 229.148 140.756L238.648 133.224C211.448 88.4668 160 66.4454 156.916 65.5139Z" fill="#F89F8E"/>
<path d="M191.948 163.218H74.0519C74.0519 155.168 75.1917 147.777 77.2901 141.113H188.71C190.808 147.777 191.948 155.168 191.948 163.218Z" fill="#8DCAFC"/>
<path d="M191.948 163.22H177.269C177.269 155.167 176.127 147.778 174.027 141.114H188.712C190.806 147.778 191.948 155.167 191.948 163.22Z" fill="#64B9FC"/>
<path d="M133 56.7632C123.43 56.7632 115.672 49.005 115.672 39.4347V34.4997C115.672 26.9571 121.786 20.8428 129.329 20.8428H136.671C144.214 20.8428 150.328 26.9571 150.328 34.4997V39.4347C150.329 49.005 142.57 56.7632 133 56.7632Z" fill="#FDB0A0"/>
<path d="M30.7599 152.772C36.984 152.772 42.0296 147.726 42.0296 141.502C42.0296 135.278 36.984 130.232 30.7599 130.232C24.5358 130.232 19.4902 135.278 19.4902 141.502C19.4902 147.726 24.5358 152.772 30.7599 152.772Z" fill="#F89F8E"/>
<path d="M235.24 152.772C241.464 152.772 246.51 147.726 246.51 141.502C246.51 135.278 241.464 130.232 235.24 130.232C229.016 130.232 223.97 135.278 223.97 141.502C223.97 147.726 229.016 152.772 235.24 152.772Z" fill="#FDB0A0"/>
<path d="M137.014 156.089V266H128.986V156.089C128.986 153.873 130.784 152.075 132.999 152.075C135.216 152.075 137.014 153.873 137.014 156.089Z" fill="#F89F8E"/>
<path d="M137.014 156.089V163.218H128.986V156.089C128.986 153.873 130.784 152.075 132.999 152.075C135.216 152.075 137.014 153.873 137.014 156.089Z" fill="#64B9FC"/>
<path d="M133 91.2666C101.185 75.7524 85.8967 94.4456 85.8967 101.893C85.8967 112.602 92.5109 116.38 92.5109 116.38C113.292 129.794 133 113.647 133 113.647C133 113.647 152.708 129.794 173.489 116.38C173.489 116.38 180.103 112.602 180.103 101.893C180.103 94.4456 164.815 75.7524 133 91.2666Z" fill="#8DCAFC"/>
<path d="M180.106 101.893C180.106 112.604 173.49 116.378 173.49 116.378C162.69 123.351 152.18 122.336 144.574 119.752C149.653 119.536 155.174 118.072 160.774 114.457C160.774 114.457 167.385 110.683 167.385 99.9725C167.385 95.9882 163.011 88.7828 154.063 85.3248C171.595 84.5195 180.106 96.3358 180.106 101.893Z" fill="#64B9FC"/>
<path d="M203.542 34.4693L202.177 31.1001C199.747 25.099 192.911 22.2047 186.911 24.6356C180.91 27.066 178.015 33.9015 180.446 39.902L188.975 60.9597C189.88 63.1921 192.422 64.2691 194.655 63.3646L215.712 54.8354C221.714 52.4051 224.608 45.5696 222.177 39.569C219.747 33.5679 212.911 30.6736 206.911 33.1045L203.542 34.4693Z" fill="#FC9085"/>
<path d="M215.714 54.8353L194.654 63.3654C192.424 64.2684 189.878 63.1904 188.975 60.9605L186.259 54.2549C186.492 54.2071 186.722 54.1339 186.951 54.0414L208.009 45.5154C213.133 43.4367 215.992 38.1495 215.202 32.9126C215.434 32.9916 215.658 33.0773 215.883 33.1724C218.646 34.3423 220.962 36.5685 222.178 39.5699C224.605 45.571 221.711 52.4064 215.714 54.8353Z" fill="#FC7C6A"/>
</svg>
