<svg width="183" height="184" viewBox="0 0 183 184" fill="none" xmlns="http://www.w3.org/2000/svg">
<path d="M0 16C66.2742 16 120 69.7258 120 136V183.797C53.7258 183.797 0 130.071 0 63.7966V16Z" fill="#4C5C59"/>
<g clip-path="url(#clip0)">
<path d="M109.858 49.5984C108.174 47.7948 105.345 47.699 103.542 49.3831C78.2349 73.0234 63.117 103.206 55.5252 137.566C54.9926 139.976 56.5147 142.361 58.9245 142.894C61.3289 143.426 63.7186 141.909 64.252 139.495C71.3687 107.284 85.442 78.5213 109.643 55.915C111.447 54.2297 111.543 51.4021 109.858 49.5984Z" fill="#90C453"/>
<path d="M88.5983 37.5061C80.3197 37.6857 67.9275 42.103 67.0337 50.8223C66.6313 54.7494 68.3858 60.5515 79.0305 65.8916C84.0098 68.3896 89.0522 68.6301 95.596 65.3501C109.584 58.3389 104.159 37.1517 88.5983 37.5061Z" fill="#80B9ED"/>
<path d="M99.2305 10.9056C92.609 15.1886 85.0119 21.4537 85.0393 31.9731C85.0652 41.881 96.1909 52.9933 105.281 52.9933C113.862 52.9933 126.555 44.3891 128.279 34.7465C130.53 22.1587 114.179 1.23648 99.2305 10.9056Z" fill="#A2D0F9"/>
<path d="M112.044 9.23796C110.151 8.61206 108.069 9.31784 106.947 10.9682C97.2626 25.208 97.6377 39.1185 108.003 50.1369C108.866 51.0541 110.052 51.5438 111.259 51.5438C114.446 51.5438 126.582 44.2329 128.279 34.7462C129.867 25.8719 121.979 12.5211 112.044 9.23796Z" fill="#8BC4FF"/>
<path d="M135.543 63.2665C132.072 56.1853 126.748 47.9015 116.299 46.6865C106.455 45.5439 94.1088 55.2757 93.0349 64.3038C91.9605 73.3376 100.181 89.9014 112.832 89.9014C125.964 89.9009 142.333 77.1198 135.543 63.2665Z" fill="#8BC4FF"/>
<path d="M134.569 70.9218C121.573 59.6229 107.716 58.3524 95.5496 67.3443C94.0342 68.4643 93.3843 70.4143 93.9247 72.2194C95.9328 78.9286 101.331 87.1342 108.438 89.2963C117.056 91.9191 131.249 85.6719 135.685 76.1873C136.53 74.3797 136.075 72.2308 134.569 70.9218Z" fill="#A2D0F9"/>
<path d="M146.912 2.07294C145.842 0.388791 143.785 -0.38234 141.871 0.184348C128.171 4.24082 119.583 13.5676 120.567 27.7672C120.697 29.6468 121.992 31.243 123.805 31.7574C126.959 32.6526 130.558 32.9967 133.938 32.6727C142.702 31.8328 148.102 26.9787 149.495 16.5339C150.224 11.074 149.282 5.80347 146.912 2.07294Z" fill="#A2D0F9"/>
<path d="M165.99 40.2465C162.519 33.1656 157.195 24.8817 146.747 23.6668C136.979 22.5301 124.565 32.1844 123.483 41.2838C122.99 45.4316 124.389 50.8522 127.226 55.7842C130.804 62.0027 136.098 66.8814 143.28 66.8814C156.395 66.8814 172.789 54.1154 165.99 40.2465Z" fill="#8BC4FF"/>
<path d="M165.017 47.9017C152.021 36.6034 138.163 35.3326 125.998 44.3245C124.482 45.4445 123.832 47.3945 124.373 49.1996C126.381 55.9085 131.779 64.1142 138.886 66.2765C147.505 68.8993 161.697 62.6521 166.133 53.1675C166.979 51.3599 166.523 49.211 165.017 47.9017Z" fill="#A2D0F9"/>
<path d="M79.0304 65.8913C80.023 66.3893 81.014 66.7868 81.9979 67.0906C84.0979 59.4572 86.8764 45.7682 84.9724 37.8153C65.879 40.6644 59.0539 55.8703 79.0304 65.8913Z" fill="#8BC4FF"/>
</g>
<defs>
<clipPath id="clip0">
<rect width="143" height="143" fill="white" transform="translate(40)"/>
</clipPath>
</defs>
</svg>
