<svg width="283" height="364" viewBox="0 0 283 364" fill="none" xmlns="http://www.w3.org/2000/svg">
<path d="M0 84H80.2425C146.517 84 200.242 137.726 200.242 204V364H120C53.7257 364 0 310.274 0 244V84Z" fill="#4C5C59"/>
<g clip-path="url(#clip0)">
<path d="M233.155 209.209C211.794 201.774 220.06 169.202 223.49 134.708C199.763 137.529 176.307 127.626 161.781 108.653C147.255 89.6809 143.814 64.4534 152.728 42.2837C136.698 42.4541 120.926 46.3285 106.642 53.6044C105.219 53.4777 103.043 53.5199 102.291 53.5199C89.9146 53.7733 54.7275 58.2509 50.5034 102.097C46.3046 145.868 69.5923 199.43 41.4553 209.213C40.8061 209.445 40.3108 209.978 40.1282 210.643C39.9456 211.308 40.0989 212.02 40.5387 212.55C45.7935 218.709 53.2998 229.958 91.4775 234.862C97.5603 235.665 103.685 236.129 109.81 236.341V236.552C109.824 241.212 113.599 244.986 118.259 245H156.276C158.551 244.994 160.729 244.073 162.318 242.444C163.907 240.815 164.774 238.616 164.724 236.341C170.891 236.129 177.016 235.665 183.141 234.862C221.315 229.958 228.825 218.709 234.076 212.55C234.518 212.019 234.671 211.305 234.488 210.639C234.304 209.973 233.807 209.439 233.155 209.209Z" fill="#A56A43"/>
<path d="M164.724 200.14V236.552C164.71 241.212 160.936 244.986 156.276 245H118.259C113.599 244.986 109.824 241.212 109.81 236.552V200.266C125.267 214.756 149.334 214.7 164.724 200.14Z" fill="#F9C795"/>
<path d="M90.2526 164.953C85.1836 164.192 71.7931 160.179 71.7931 139.228C71.7931 118.783 81.9733 124.147 86.2819 127.316C86.0058 139.979 87.34 152.626 90.2526 164.953Z" fill="#F9C795"/>
<path d="M188.21 129.47C187.864 147.634 186.255 164.108 178.706 180.159C170.549 197.812 157.023 211.038 137.267 211.038C117.359 211.038 104.146 198.095 95.7017 180.159C87.9715 163.406 86.5057 145.847 86.2818 127.315C85.8594 108.442 87.7941 87.5156 102.798 76.0344C105.671 83.2999 114.288 97.1551 137.267 97.1551C144.322 97.1551 150.024 97.1974 154.797 97.4508C161.815 111.727 173.649 123.066 188.21 129.47Z" fill="#FDD7AD"/>
<path d="M202.741 139.228C202.741 160.179 189.351 164.192 184.282 164.953C187.044 153.331 188.363 141.414 188.21 129.47C192.777 131.48 197.551 132.981 202.446 133.948C202.663 135.699 202.762 137.463 202.741 139.228Z" fill="#F9C795"/>
<path d="M160.5 156.293C162.833 156.293 164.724 154.402 164.724 152.069C164.724 149.736 162.833 147.845 160.5 147.845C158.167 147.845 156.276 149.736 156.276 152.069C156.276 154.402 158.167 156.293 160.5 156.293Z" fill="#FB7B76"/>
<path d="M152.052 168.965C154.385 168.965 156.276 167.074 156.276 164.741C156.276 162.408 154.385 160.517 152.052 160.517C149.719 160.517 147.828 162.408 147.828 164.741C147.828 167.074 149.719 168.965 152.052 168.965Z" fill="#FB7B76"/>
<path d="M168.948 168.965C171.281 168.965 173.172 167.074 173.172 164.741C173.172 162.408 171.281 160.517 168.948 160.517C166.615 160.517 164.724 162.408 164.724 164.741C164.724 167.074 166.615 168.965 168.948 168.965Z" fill="#FB7B76"/>
<path d="M114.034 156.293C116.367 156.293 118.259 154.402 118.259 152.069C118.259 149.736 116.367 147.845 114.034 147.845C111.702 147.845 109.81 149.736 109.81 152.069C109.81 154.402 111.702 156.293 114.034 156.293Z" fill="#FB7B76"/>
<path d="M105.586 168.965C107.919 168.965 109.81 167.074 109.81 164.741C109.81 162.408 107.919 160.517 105.586 160.517C103.253 160.517 101.362 162.408 101.362 164.741C101.362 167.074 103.253 168.965 105.586 168.965Z" fill="#FB7B76"/>
<path d="M122.483 168.965C124.816 168.965 126.707 167.074 126.707 164.741C126.707 162.408 124.816 160.517 122.483 160.517C120.15 160.517 118.259 162.408 118.259 164.741C118.259 167.074 120.15 168.965 122.483 168.965Z" fill="#FB7B76"/>
<path d="M143.603 143.621C141.895 143.62 140.355 142.591 139.702 141.013C139.048 139.435 139.409 137.618 140.617 136.41L164.61 112.417C166.267 110.816 168.902 110.839 170.531 112.468C172.161 114.098 172.184 116.732 170.583 118.39L146.59 142.383C145.798 143.175 144.724 143.62 143.603 143.621Z" fill="#2980BA"/>
<path d="M215.414 1.26914e-05C187.858 -0.0168249 163.06 16.7214 152.77 42.2836H152.728C141.604 69.8354 149.779 101.421 172.872 120.116C195.966 138.812 228.561 140.233 253.193 123.617C277.826 107.002 288.718 76.2478 280.034 47.8327C271.35 19.4176 245.126 0.00662668 215.414 1.26914e-05Z" fill="#3B97D3"/>
<path d="M264.498 54.9138H252.671C250.196 54.9385 247.84 53.8536 246.25 51.9569C231.313 33.4003 199.561 33.3412 184.578 51.9569C182.987 53.8536 180.632 54.9385 178.157 54.9138H166.329C172.102 32.525 192.293 16.8794 215.414 16.8794C238.535 16.8794 258.726 32.525 264.498 54.9138Z" fill="#FDD7AD"/>
<path d="M265.934 71.8105H253.6C245.789 72.0179 238.304 68.6791 233.24 62.7286C228.649 57.751 222.185 54.9198 215.414 54.9198C208.642 54.9198 202.179 57.751 197.588 62.7286C192.524 68.6791 185.039 72.0179 177.228 71.8105H164.893C164.428 66.1376 164.913 60.4268 166.329 54.9139H178.157C180.632 54.9386 182.988 53.8536 184.578 51.957C199.514 33.4004 231.267 33.3412 246.25 51.957C247.84 53.8536 250.196 54.9386 252.671 54.9139H264.498C265.916 60.4265 266.402 66.1376 265.934 71.8105Z" fill="#F9C795"/>
<path d="M265.934 71.8104C263.781 98.1141 241.805 118.365 215.414 118.365C189.022 118.365 167.046 98.1141 164.893 71.8104H177.228C185.039 72.0178 192.524 68.679 197.588 62.7285C202.179 57.7509 208.642 54.9197 215.414 54.9197C222.185 54.9197 228.649 57.7509 233.24 62.7285C238.304 68.679 245.789 72.0178 253.6 71.8104H265.934Z" fill="#FB7B76"/>
<path d="M202.741 82.3706C203.863 76.2532 209.194 71.8103 215.414 71.8103C221.633 71.8103 226.965 76.2532 228.086 82.3706C228.086 85.8682 222.413 88.7068 215.414 88.7068C208.414 88.7068 202.741 85.8682 202.741 82.3706Z" fill="#F5EFCA"/>
<path d="M215.414 122.5C185.086 122.5 160.5 97.9145 160.5 67.5864C160.5 37.2583 185.086 12.6726 215.414 12.6726C245.742 12.6726 270.328 37.2583 270.328 67.5864C270.293 97.9 245.727 122.465 215.414 122.5ZM215.414 21.1209C189.752 21.1209 168.948 41.9242 168.948 67.5864C168.948 93.2486 189.752 114.052 215.414 114.052C241.076 114.052 261.879 93.2486 261.879 67.5864C261.849 41.9367 241.063 21.1511 215.414 21.1209Z" fill="#285680"/>
</g>
<defs>
<clipPath id="clip0">
<rect width="245" height="245" fill="white" transform="translate(38)"/>
</clipPath>
</defs>
</svg>
