<svg width="162" height="168" viewBox="0 0 162 168" fill="none" xmlns="http://www.w3.org/2000/svg">
<path d="M0 0C66.2742 0 120 53.7258 120 120V167.797C53.7258 167.797 0 114.071 0 47.7966V0Z" fill="#98B599"/>
<path d="M141.988 116.778C142.755 121.505 140.072 126.188 135.665 127.657C126.724 130.595 114.781 132 107.5 132C100.219 132 88.2759 130.595 79.3348 127.657C74.9279 126.188 72.2453 121.505 73.0115 116.778C73.0753 116.076 81.889 82.0344 81.9531 81.7151H133.047C133.111 82.0344 141.924 116.076 141.988 116.778Z" fill="#F03800"/>
<path d="M133.047 81.7151C133.111 82.0344 141.924 116.076 141.988 116.778C142.755 121.505 140.072 126.188 135.665 127.657C126.724 130.595 114.781 132 107.5 132V81.7151H133.047Z" fill="#CD0000"/>
<path d="M116.888 108.411L110.885 110.455L107.5 100.364L104.115 110.455L98.1117 108.411L102.391 95.5105H112.609L116.888 108.411Z" fill="#CD0000"/>
<path d="M112.609 95.5105L116.888 108.411L110.885 110.455L107.5 100.364V95.5105H112.609Z" fill="#B20404"/>
<path d="M141.989 38.5408C140.519 47.8015 137.901 52.7195 133.047 67.2174H81.9532C77.0352 52.4636 74.4809 47.8015 73.0115 38.5406C72.2451 33.7506 74.9278 29.0672 79.3348 27.598C88.276 24.6605 100.219 23 107.5 23C114.781 23 126.724 24.6605 135.665 27.5982C140.072 29.0674 142.755 33.7508 141.989 38.5408Z" fill="#F03800"/>
<path d="M133.047 67.2174H107.5V23C114.781 23 126.724 24.6605 135.665 27.5982C140.072 29.0674 142.755 33.7508 141.988 38.5408C140.519 47.8015 137.901 52.7195 133.047 67.2174Z" fill="#CD0000"/>
<path d="M116.888 46.5882L112.609 59.4255H102.391L98.1117 46.5882L104.115 44.5444L107.5 54.6355L110.885 44.5444L116.888 46.5882Z" fill="#CD0000"/>
<path d="M112.609 59.4255H107.5V54.6355L110.885 44.5444L116.888 46.5882L112.609 59.4255Z" fill="#B20404"/>
<path d="M157.728 49.4708C156.309 45.1548 151.896 42.4105 147.455 43.0747C127.877 46.0234 116.323 56.9537 114.742 57.9063L114.527 97.1902C116.933 98.644 126.675 109.051 147.455 112.187C151.943 112.846 156.322 110.065 157.728 105.788C160.662 96.8598 162 84.9345 162 77.6309C162 70.3272 160.662 58.399 157.728 49.4708Z" fill="#F03800"/>
<path d="M100.699 57.9064C98.3114 56.4675 88.6745 46.191 67.9886 43.0747C63.5042 42.4043 58.919 45.1549 57.5001 49.4708C54.5656 58.399 53 70.3275 53 77.6309C53 84.9343 54.5656 96.8596 57.5001 105.788C58.9062 110.065 63.4976 112.847 67.9886 112.187C87.6563 109.219 99.2026 98.2245 100.914 97.1904L100.699 57.9064Z" fill="#FF641A"/>
<path d="M87.7559 77.4939L89.4624 72.3794L76.5768 68.0852L74.556 74.1415L84.6319 77.4992L74.556 80.8586L76.5768 86.915L89.4656 82.6175L87.7559 77.4939Z" fill="#F03800"/>
<path d="M140.444 74.1415L138.423 68.0852L125.538 72.3794L127.244 77.4939L125.534 82.6175L138.423 86.915L140.444 80.8586L130.368 77.4992L140.444 74.1415Z" fill="#CD0000"/>
<path d="M107.5 55.1465C95.1736 55.1465 85.1465 65.1736 85.1465 77.5C85.1465 89.8264 95.1736 99.8535 107.5 99.8535C119.826 99.8535 129.854 89.8264 129.854 77.5C129.854 65.1736 119.826 55.1465 107.5 55.1465Z" fill="#895D3C"/>
<path d="M129.854 77.5C129.854 89.8264 119.826 99.8535 107.5 99.8535V55.1465C119.826 55.1465 129.854 65.1736 129.854 77.5Z" fill="#714C2F"/>
<path d="M110.693 67.9199H104.307V74.3066H110.693V67.9199Z" fill="#714C2F"/>
<path d="M110.693 80.6934H104.307V87.0801H110.693V80.6934Z" fill="#714C2F"/>
<path d="M104.307 74.3066H97.9199V80.6934H104.307V74.3066Z" fill="#714C2F"/>
<path d="M117.08 74.3066H110.693V80.6934H117.08V74.3066Z" fill="#523522"/>
<path d="M110.693 67.9199H107.5V74.3066H110.693V67.9199Z" fill="#523522"/>
<path d="M110.693 80.6934H107.5V87.0801H110.693V80.6934Z" fill="#523522"/>
</svg>
