<svg width="193" height="204" viewBox="0 0 193 204" fill="none" xmlns="http://www.w3.org/2000/svg">
<path d="M0 36C66.2742 36 120 89.7258 120 156V203.797C53.7258 203.797 0 150.071 0 83.7966V36Z" fill="#4C5C59"/>
<g clip-path="url(#clip0)">
<path d="M85.1735 22.6837C83.6368 22.2381 81.9812 22.7164 80.9185 23.913C79.8561 25.1083 79.5766 26.809 80.1992 28.282L97.4978 69.2787C97.9813 70.4294 98.9574 71.3 100.154 71.6495C100.38 71.7016 100.611 71.7332 100.842 71.7462C102.301 71.9226 103.744 71.309 104.629 70.1354C105.513 68.9619 105.706 67.4076 105.136 66.0534L101.486 57.3995L87.8378 25.0568C87.3534 23.9044 86.3739 23.0314 85.1735 22.6837Z" fill="#3D7606"/>
<path d="M111.125 74.7365C111.328 74.8499 111.539 74.9468 111.759 75.0243L111.771 75.0279C112.969 75.3749 114.26 75.1636 115.284 74.4513L151.872 49.1264C153.187 48.217 153.864 46.6316 153.608 45.053C153.353 43.4731 152.212 42.1815 150.676 41.7335L150.663 41.7298C149.465 41.3828 148.175 41.5942 147.149 42.3061L118.277 62.2826L110.555 67.6292C109.348 68.4665 108.676 69.8817 108.795 71.3469C108.912 72.8118 109.799 74.1032 111.125 74.7365Z" fill="#3D7606"/>
<path d="M91.3849 101.162L89.0044 69.3109C88.9043 68.6065 89.0876 67.892 89.5144 67.3232C89.9409 66.7557 90.577 66.3798 91.2798 66.2806C91.9841 66.1805 92.6986 66.3638 93.2662 66.7902C93.835 67.217 94.2099 67.8515 94.31 68.5559L96.6893 100.407C96.7894 101.111 96.6073 101.826 96.1793 102.394C95.7528 102.962 95.1179 103.338 94.414 103.437C93.7109 103.537 92.9964 103.354 92.4276 102.927C91.86 102.501 91.4838 101.866 91.3849 101.162Z" fill="#3D7606"/>
<path d="M87.5935 146.062C87.0536 145.602 86.7182 144.943 86.6627 144.235C86.6075 143.526 86.836 142.825 87.2982 142.284L106.389 116.678C106.85 116.136 107.508 115.802 108.216 115.747C108.925 115.692 109.626 115.92 110.166 116.382C110.707 116.843 111.041 117.501 111.096 118.209C111.153 118.918 110.923 119.619 110.461 120.16L91.3714 145.767C90.9092 146.308 90.2524 146.642 89.5434 146.697C88.8357 146.753 88.1343 146.524 87.5935 146.062Z" fill="#3D7606"/>
<path d="M79.4232 142.292L77.0426 110.441C76.9425 109.737 77.1258 109.022 77.5526 108.453C77.9791 107.886 78.6152 107.51 79.318 107.411C80.0223 107.311 80.7368 107.494 81.3044 107.92C81.8732 108.347 82.2481 108.982 82.3482 109.686L84.7275 141.537C84.8276 142.241 84.6456 142.956 84.2175 143.524C83.7911 144.092 83.1562 144.468 82.4522 144.567C81.7491 144.667 81.0346 144.484 80.4658 144.057C79.8982 143.631 79.522 142.996 79.4232 142.292Z" fill="#3D7606"/>
<path d="M99.5553 104.932C99.0154 104.471 98.68 103.813 98.6245 103.105C98.5693 102.396 98.7978 101.695 99.26 101.154L118.351 75.5475C118.812 75.0063 119.47 74.6722 120.178 74.6166C120.887 74.5614 121.588 74.7899 122.127 75.2518C122.669 75.7128 123.003 76.3708 123.058 77.0785C123.115 77.7879 122.885 78.4889 122.423 79.0297L103.333 104.637C102.871 105.177 102.214 105.512 101.505 105.567C100.797 105.623 100.096 105.394 99.5553 104.932Z" fill="#3D7606"/>
<path d="M84.1832 167.375L113.49 66.6054C113.891 65.226 113.719 63.7425 113.014 62.4891C111.585 59.9486 108.386 59.0181 105.816 60.3959C104.55 61.0759 103.61 62.2359 103.207 63.615L73.9006 164.384L84.1832 167.375Z" fill="#D2D76D"/>
<path d="M120.908 21.9242C118.069 21.0984 115.097 22.731 114.272 25.5702L106.131 53.5623L108.615 64.1953L116.413 56.5527L124.554 28.5607C125.38 25.7214 123.747 22.7499 120.908 21.9242Z" fill="#3D7606"/>
<path d="M96.4927 105.361L79.1941 64.3639C78.7106 63.2132 77.7345 62.3425 76.5374 61.993C75.0007 61.5475 73.3451 62.0257 72.2823 63.2223C71.22 64.4176 70.9405 66.1184 71.5631 67.5914L88.8617 108.588C89.3452 109.739 90.3213 110.609 91.5184 110.959C91.742 111.009 91.9696 111.041 92.1988 111.053C93.6572 111.23 95.1004 110.616 95.9849 109.443C96.8694 108.269 97.0627 106.715 96.4927 105.361Z" fill="#498C07"/>
<path d="M97.9864 112.84C99.1842 113.187 100.475 112.976 101.499 112.263L138.087 86.9384C139.402 86.029 140.079 84.4436 139.823 82.865C139.568 81.2851 138.427 79.9935 136.891 79.5455L136.878 79.5418C135.681 79.1948 134.39 79.4062 133.365 80.1181L96.7777 105.443C95.5707 106.279 94.8994 107.693 95.0153 109.158C95.1316 110.621 96.0165 111.913 97.3401 112.549C97.5426 112.662 97.754 112.759 97.9738 112.836L97.9864 112.84Z" fill="#498C07"/>
<path d="M60.3213 106.143L77.6198 147.139C78.1033 148.29 79.0782 149.16 80.2765 149.51C80.5083 149.565 80.7462 149.599 80.9846 149.613C82.443 149.789 83.8862 149.176 84.7707 148.002C85.6552 146.828 85.8485 145.274 85.2785 143.92L67.9799 102.923C67.4964 101.773 66.5203 100.902 65.3232 100.552C63.7848 100.094 62.1202 100.566 61.0496 101.761C59.9786 102.958 59.696 104.665 60.3213 106.143Z" fill="#498C07"/>
<path d="M86.7723 151.4C87.9701 151.746 89.2609 151.535 90.2848 150.823L126.873 125.498C128.188 124.589 128.865 123.003 128.609 121.425C128.354 119.845 127.213 118.553 125.677 118.105L125.664 118.101C124.466 117.754 123.176 117.966 122.15 118.678L85.5636 144.003C84.3566 144.839 83.6853 146.253 83.8012 147.717C83.9175 149.181 84.8024 150.473 86.126 151.108C86.3285 151.221 86.5399 151.318 86.7597 151.396L86.7723 151.4Z" fill="#498C07"/>
<path d="M98.3974 55.7186L92.0039 28.3228C91.6686 26.8871 92.12 25.382 93.1894 24.3684C94.2591 23.3535 95.7853 22.9833 97.2003 23.3935L98.3425 23.7257C99.781 24.144 100.882 25.3068 101.222 26.7659L109.362 61.6247L134.928 36.5685C135.998 35.5197 137.551 35.1286 138.989 35.5469L140.13 35.8787C141.546 36.2918 142.636 37.4227 142.994 38.853C143.353 40.282 142.927 41.7944 141.874 42.8264L121.783 62.5197C118.463 65.7758 114.71 68.5601 110.63 70.7932C108.043 72.2069 104.801 71.264 103.376 68.6836C101.129 64.6103 99.4532 60.2472 98.3974 55.7186Z" fill="#498C07"/>
</g>
<defs>
<clipPath id="clip0">
<rect width="149.92" height="149.92" fill="white" transform="translate(48.8387 0.964355) rotate(16.2159)"/>
</clipPath>
</defs>
</svg>
