<svg width="180" height="168" viewBox="0 0 180 168" fill="none" xmlns="http://www.w3.org/2000/svg">
<path d="M0 0C66.2742 0 120 53.7258 120 120V167.797C53.7258 167.797 0 114.071 0 47.7966V0Z" fill="#98B599"/>
<path d="M180 129.2C180 132.955 176.955 136 173.2 136C169.445 136 166.4 132.955 166.4 129.2C166.4 125.445 169.445 122.4 173.2 122.4C176.955 122.4 180 125.445 180 129.2Z" fill="#8BD2F5"/>
<path d="M180 92.9334C180 97.9404 175.94 102 170.933 102C165.926 102 161.867 97.9404 161.867 92.9334C161.867 87.9263 165.926 83.8667 170.933 83.8667C175.94 83.8667 180 87.9263 180 92.9334Z" fill="#8BD2F5"/>
<path d="M57.6 129.2C57.6 132.955 54.5553 136 50.8 136C47.0447 136 44 132.955 44 129.2C44 125.445 47.0447 122.4 50.8 122.4C54.5553 122.4 57.6 125.445 57.6 129.2Z" fill="#8BD2F5"/>
<path d="M62.1333 104.267C62.1333 109.274 58.0737 113.333 53.0667 113.333C48.0596 113.333 44 109.274 44 104.267C44 99.2597 48.0596 95.2001 53.0667 95.2001C58.0737 95.2001 62.1333 99.2597 62.1333 104.267Z" fill="#8BD2F5"/>
<path d="M132.4 68C132.4 70.5035 130.37 72.5333 127.867 72.5333C125.363 72.5333 123.333 70.5035 123.333 68C123.333 65.4965 125.363 63.4667 127.867 63.4667C130.37 63.4667 132.4 65.4965 132.4 68Z" fill="#8BD2F5"/>
<path d="M134.667 47.6C134.667 51.3553 131.622 54.4 127.867 54.4C124.111 54.4 121.067 51.3553 121.067 47.6C121.067 43.8448 124.111 40.8 127.867 40.8C131.622 40.8 134.667 43.8448 134.667 47.6Z" fill="#8BD2F5"/>
<path d="M157.333 24.9334C157.333 29.9404 153.274 34 148.267 34C143.26 34 139.2 29.9404 139.2 24.9334C139.2 19.9263 143.26 15.8667 148.267 15.8667C153.274 15.8667 157.333 19.9263 157.333 24.9334Z" fill="#8BD2F5"/>
<path d="M73.4667 108.8V100.329C73.4667 91.0065 71.1436 81.8546 66.6667 73.6667C62.1898 65.4788 59.8667 56.3269 59.8667 47.0046V24.9333L68.6213 52.9269C70.3213 58.3667 73.1546 63.4102 76.9231 67.7167C83.4686 75.1962 87.0955 84.8019 87.0955 94.7462V108.8H73.4667Z" fill="#568E53"/>
<path d="M150.533 106.533V101.604C150.533 92.9622 152.885 84.4622 157.333 77.0667C161.781 69.6436 164.133 61.1713 164.133 52.5296V40.8L155.548 61.4269C153.735 65.7622 150.958 69.5872 147.388 72.6463C140.758 78.3417 136.933 86.6436 136.933 95.3705V104.267L150.533 106.533Z" fill="#568E53"/>
<path d="M102.933 99.7333V93.7546C102.933 81.2038 100.921 68.7083 96.9269 56.8083C94.8871 50.7167 93.8667 44.3129 93.8667 37.8814C93.8667 29.3538 95.7084 20.9102 99.2213 13.1186L103.727 3.20189C104.633 1.275 106.588 0 108.742 0C111.802 0 114.267 2.46478 114.267 5.525V5.75189C114.267 6.46022 114.125 7.13978 113.87 7.79167L108.43 21.3917C106.305 26.7186 105.2 32.4129 105.2 38.1648C105.2 45.8436 107.155 53.3796 110.895 60.0954C114.606 66.7538 116.533 74.2621 116.533 81.9121V99.7333H102.933Z" fill="#7ECB92"/>
<path d="M125.969 132.232C129.17 135.433 134.921 136 141.467 136C151.469 136 159.6 134.669 159.6 124.667C159.6 114.665 151.469 99.7334 141.467 99.7334C135.829 99.7334 130.813 104.465 127.47 110.358" fill="#695B52"/>
<path d="M94.3205 132.827C91.6565 135.858 86.3584 136 80.2667 136C71.5121 136 64.4 135.688 64.4 126.933C64.4 118.179 71.5121 104.267 80.2667 104.267C84.6019 104.267 88.5121 107.667 91.3731 112.143" fill="#695B52"/>
<path d="M130.133 122.4C130.133 111.123 121.01 95.2 109.733 95.2C98.4564 95.2 89.3333 111.123 89.3333 122.4C89.3333 133.677 98.4564 136 109.733 136C121.01 136 130.133 133.677 130.133 122.4Z" fill="#857970"/>
<path d="M109.733 129.2V124.667C117.44 124.667 118.8 123.477 118.8 120.133C118.8 114.523 114.096 106.533 109.733 106.533V102C117.61 102 123.333 112.823 123.333 120.133C123.333 129.2 114.494 129.2 109.733 129.2Z" fill="#695B52"/>
</svg>
