<svg width="158" height="168" viewBox="0 0 158 168" fill="none" xmlns="http://www.w3.org/2000/svg">
<path d="M0 0C66.2742 0 120 53.7258 120 120V167.797C53.7258 167.797 0 114.071 0 47.7966V0Z" fill="#98B599"/>
<g clip-path="url(#clip0)">
<path d="M26.7086 50.0494C25.45 50.487 24.5727 51.4689 24.2003 52.6148L79.4612 70.5703L73.5501 61.6413L54.1133 51.8321C45.7859 47.6789 35.9209 46.8469 26.7086 50.0494Z" fill="#FBCF72"/>
<path d="M25.9343 52.4323C24.8696 52.2732 24.2823 52.3619 24.2001 52.6148C23.8278 53.7609 23.9604 55.0708 24.7215 56.1649C30.2932 64.172 38.7651 69.2977 47.9448 70.8315L69.4306 74.3196L79.4609 70.5703L71.9448 66.5815L51.7078 59.235C43.0491 56.102 33.7278 53.597 25.9343 52.4323Z" fill="#FAEC8E"/>
<path d="M48.0508 127.965C48.0781 129.297 48.7408 130.435 49.7154 131.143L83.8685 84.135L73.5499 86.9975L58.2146 102.452C51.6917 109.088 47.8519 118.213 48.0508 127.965Z" fill="#FBCF72"/>
<path d="M50.0777 129.437C49.5972 130.401 49.5004 130.987 49.7156 131.143C50.6905 131.851 51.9774 132.13 53.253 131.744C62.5898 128.919 70.0825 122.446 74.3783 114.189L84.335 94.8329L83.8689 84.135L77.7526 90.0507L64.5122 107.027C58.8564 114.294 53.5938 122.385 50.0777 129.437Z" fill="#FAEC8E"/>
<path d="M128.747 131.744C130.023 132.13 131.31 131.851 132.284 131.143L98.1315 84.135L97.6653 94.8329L107.624 114.193C111.92 122.448 119.412 128.92 128.747 131.744Z" fill="#FBCF72"/>
<path d="M130.774 130.271C131.542 131.026 132.07 131.299 132.285 131.143C133.26 130.435 133.922 129.297 133.95 127.964C134.149 118.211 130.307 109.085 123.782 102.449L108.45 86.9975L98.1317 84.135L101.868 91.78L113.922 109.618C119.085 117.242 125.154 124.748 130.774 130.271Z" fill="#FAEC8E"/>
<path d="M157.279 56.1646C158.04 55.0708 158.172 53.7607 157.8 52.6148L102.539 70.5703L112.569 74.3196L134.06 70.8307C143.238 69.2958 151.708 64.1704 157.279 56.1646Z" fill="#FBCF72"/>
<path d="M156.504 53.7817C157.459 53.2845 157.882 52.8674 157.8 52.6145C157.427 51.4687 156.55 50.4867 155.291 50.0491C146.077 46.8461 136.211 47.6792 127.882 51.834L108.45 61.6413L102.539 70.5703L110.964 69.3794L131.654 63.4278C140.501 60.8727 149.515 57.4202 156.504 53.7817Z" fill="#FAEC8E"/>
<path d="M94.2149 5.67463C93.4098 4.61287 92.2049 4.08173 91 4.08173V62.1865L97.6652 53.8057L100.988 32.2891C102.365 23.086 100.107 13.4466 94.2149 5.67463Z" fill="#FBCF72"/>
<path d="M91.7097 5.67463C91.532 4.61287 91.2659 4.08173 91 4.08173C89.7951 4.08173 88.5902 4.6126 87.7848 5.67463C81.8913 13.448 79.6345 23.089 81.0123 32.2937L84.3345 53.8057L90.9998 62.1865L92.4708 53.8057L93.2041 32.2891C93.5083 23.086 93.01 13.4466 91.7097 5.67463Z" fill="#FAEC8E"/>
<path d="M112.569 74.3193C112.569 73.0321 111.966 71.8876 111.029 71.147C111.691 70.1529 111.912 68.8781 111.514 67.6538C111.116 66.4295 110.189 65.5276 109.068 65.1129C109.391 63.9627 109.207 62.6823 108.45 61.6411C107.694 60.5995 106.533 60.0285 105.339 59.9802C105.291 58.7866 104.72 57.6259 103.679 56.8691C102.637 56.1126 101.357 55.9281 100.207 56.2509C99.7917 55.1306 98.8901 54.2031 97.6658 53.8054C96.4415 53.4077 95.1667 53.628 94.1726 54.2905C93.432 53.3533 92.2877 52.7499 91.0003 52.7499C89.7129 52.7499 88.5686 53.3533 87.828 54.2905C86.8339 53.628 85.5592 53.4077 84.3348 53.8054C83.1105 54.2031 82.2086 55.1306 81.794 56.2509C80.6438 55.9281 79.3633 56.1126 78.3221 56.8691C77.2806 57.6256 76.7095 58.7866 76.6612 59.9802C75.4676 60.0285 74.3069 60.5995 73.5504 61.6411C72.7938 62.6826 72.6094 63.963 72.9322 65.1129C71.8119 65.5279 70.8844 66.4295 70.4867 67.6538C70.089 68.8781 70.3093 70.1529 70.9715 71.147C70.0343 71.8876 69.4309 73.0319 69.4309 74.3193C69.4309 75.6067 70.0343 76.751 70.9715 77.4916C70.309 78.4857 70.0888 79.7605 70.4867 80.9848C70.8844 82.2091 71.8119 83.111 72.9322 83.5257C72.6094 84.6759 72.7938 85.9563 73.5504 86.9975C74.3069 88.0391 75.4679 88.6101 76.6612 88.6584C76.7095 89.852 77.2808 91.0127 78.3221 91.7692C79.3633 92.5258 80.644 92.7102 81.794 92.3875C82.2089 93.5077 83.1105 94.4352 84.3348 94.8329C85.5592 95.2306 86.8353 95.0125 87.8293 94.35C88.57 95.2861 89.7137 95.8887 91 95.8887C92.2869 95.8887 93.4309 95.2856 94.1716 94.3489C95.1656 95.0114 96.4409 95.2309 97.6653 94.8332C98.8896 94.4355 99.7912 93.508 100.206 92.3877C101.356 92.7105 102.637 92.526 103.678 91.7695C104.72 91.0129 105.291 89.852 105.339 88.6586C106.532 88.6104 107.693 88.0391 108.45 86.9978C109.206 85.9565 109.391 84.6758 109.068 83.5259C110.188 83.111 111.116 82.2094 111.513 80.9851C111.911 79.7607 111.691 78.486 111.028 77.4919C111.966 76.751 112.569 75.6067 112.569 74.3193Z" fill="#FBF6C3"/>
<path d="M91 86.4521C97.7007 86.4521 103.133 81.02 103.133 74.3193C103.133 67.6185 97.7007 62.1865 91 62.1865C84.2992 62.1865 78.8672 67.6185 78.8672 74.3193C78.8672 81.02 84.2992 86.4521 91 86.4521Z" fill="#FBB860"/>
<path d="M91.0001 78.3636C93.2337 78.3636 95.0443 76.5529 95.0443 74.3193C95.0443 72.0857 93.2337 70.275 91.0001 70.275C88.7665 70.275 86.9558 72.0857 86.9558 74.3193C86.9558 76.5529 88.7665 78.3636 91.0001 78.3636Z" fill="#FB8151"/>
</g>
<defs>
<clipPath id="clip0">
<rect width="134" height="134" fill="white" transform="translate(24 1)"/>
</clipPath>
</defs>
</svg>
