<svg width="171" height="176" viewBox="0 0 171 176" fill="none" xmlns="http://www.w3.org/2000/svg">
<path d="M0 8C66.2742 8 120 61.7258 120 128V175.797C53.7258 175.797 0 122.071 0 55.7966V8Z" fill="#4C5C59"/>
<path d="M94.5 151.231C93.178 151.231 92.1094 150.162 92.1094 148.84V52.9476C92.1094 51.6256 93.178 50.5569 94.5 50.5569C95.822 50.5569 96.8906 51.6256 96.8906 52.9476V148.84C96.8906 150.162 95.822 151.231 94.5 151.231Z" fill="#8CC152"/>
<path d="M72.9821 103.428C83.5487 103.428 92.1071 112.01 92.1071 122.553V132.139C86.8238 132.139 82.5446 127.863 82.5446 122.553C82.5446 114.638 76.1138 108.209 68.2009 108.209C60.766 108.209 54.6699 113.849 53.9288 121.097C54.6699 111.219 62.9176 103.428 72.9821 103.428Z" fill="#A0D468"/>
<path d="M116.018 89.0843C126.083 89.0843 134.354 96.8538 135.071 106.753C134.33 99.5074 128.237 93.8655 120.799 93.8655C112.886 93.8655 106.456 100.294 106.456 108.209C106.456 113.495 102.176 117.772 96.8931 117.772V108.209C96.8931 97.6427 105.452 89.0843 116.018 89.0843Z" fill="#A0D468"/>
<path d="M103.035 36.9662C103.68 38.2572 104.062 39.7131 104.062 41.2694C104.062 43.0145 103.584 44.6401 102.772 46.0506C102.676 46.1964 102.58 46.3877 102.437 46.6004C100.713 49.1584 97.7991 50.8319 94.5 50.8319C94.3327 50.8319 94.1414 50.8319 93.9023 50.8079C90.6033 50.6167 87.7823 48.7544 86.2284 46.0506C86.1567 45.9311 86.0611 45.7661 85.9655 45.5749C85.32 44.2815 84.9375 42.8257 84.9375 41.2694C84.9375 39.5242 85.4156 37.8986 86.2284 36.4881C86.3241 36.3447 86.4197 36.1534 86.5631 35.9383C88.2868 33.3827 91.2009 31.7068 94.5 31.7068C98.0381 31.7068 101.122 33.6217 102.772 36.4881C102.843 36.61 102.939 36.775 103.035 36.9662Z" fill="#FFCE54"/>
<path d="M86.2286 36.4881C85.4158 37.8986 84.9376 39.5242 84.9376 41.2694C84.9376 42.8233 85.3201 44.2816 85.9656 45.5749C84.9161 43.6361 82.6665 38.8094 80.2305 33.0241C74.9472 20.5666 68.7555 3.68874 71.7916 1.91968C74.8277 0.17691 86.3505 13.9684 94.5025 24.7741L94.5264 24.8003C90.7971 29.725 87.761 34.0066 86.5657 35.9383C86.4198 36.1558 86.3242 36.3471 86.2286 36.4881Z" fill="#CCD1D9"/>
<path d="M102.437 46.6028C101.242 48.5153 98.2032 52.8185 94.5001 57.7432C86.3481 68.5488 74.8252 82.3642 71.7891 80.5951C68.7531 78.8524 74.9448 61.9961 80.2281 49.517C86.3959 50.2796 91.6529 50.7386 93.9024 50.808C94.1415 50.8319 94.3328 50.8319 94.5001 50.8319C97.7992 50.8319 100.716 49.1608 102.437 46.6028Z" fill="#CCD1D9"/>
<path d="M80.228 33.0241C82.6665 38.8094 84.9137 43.6361 85.9632 45.5749C86.0588 45.7661 86.1544 45.9311 86.2261 46.0506C87.78 48.7544 90.601 50.6167 93.9 50.808C91.6528 50.7386 86.3935 50.2796 80.2256 49.517C66.7903 47.8436 49.0758 44.786 49.0758 41.2694C49.0782 37.7552 66.7927 34.6952 80.228 33.0241Z" fill="#E6E9ED"/>
<path d="M86.5632 35.9383C87.7585 34.0043 90.797 29.7227 94.524 24.8004C102.676 13.9924 114.177 0.176937 117.211 1.92209C120.247 3.69116 114.055 20.5451 108.772 33.0265C101.983 32.1874 96.2716 31.7093 94.5001 31.7093C91.201 31.7069 88.2845 33.3803 86.5632 35.9383Z" fill="#E6E9ED"/>
<path d="M108.772 49.4955C106.312 43.7341 104.086 38.9026 103.037 36.9686C102.941 36.7774 102.846 36.6124 102.774 36.4905C101.124 33.6241 98.043 31.7092 94.5024 31.7092C96.2715 31.7092 101.985 32.1874 108.774 33.0265C122.207 34.6951 139.922 37.7551 139.922 41.2693C139.922 44.7859 122.207 47.8436 108.772 49.4955Z" fill="#CCD1D9"/>
<path d="M103.035 36.9662C104.084 38.9027 106.31 43.7317 108.77 49.4931C114.029 61.9483 120.245 78.85 117.209 80.5928C114.173 82.3618 102.65 68.544 94.4977 57.7408C98.2032 52.8137 101.239 48.513 102.435 46.6005C102.578 46.3853 102.674 46.1941 102.769 46.0506C103.582 44.6402 104.06 43.0145 104.06 41.2694C104.063 39.7155 103.68 38.2572 103.035 36.9662Z" fill="#E6E9ED"/>
</svg>
