<svg width="197" height="218" viewBox="0 0 197 218" fill="none" xmlns="http://www.w3.org/2000/svg">
<path d="M31 50.0001C97.2742 50.0001 151 103.726 151 170V217.797C84.7258 217.797 31 164.071 31 97.7967V50.0001Z" fill="#98B599"/>
<g clip-path="url(#clip0)">
<path d="M113.287 117.548L90.229 118.801C88.5119 118.895 87.0244 120.023 86.4741 121.653L74.1063 158.212C73.5262 159.926 74.1082 161.82 75.5516 162.912L102.581 183.373C103.479 184.053 104.611 184.344 105.725 184.181L132.585 180.267C133.884 180.078 134.99 179.301 135.621 178.208C135.857 177.8 136.026 177.348 136.115 176.866L140.819 151.264C141.04 150.06 140.725 148.82 139.957 147.867L116.79 119.108C115.941 118.055 114.638 117.474 113.287 117.548Z" fill="#193B66"/>
<path d="M116.789 119.108L139.957 147.866C140.724 148.82 141.04 150.061 140.818 151.264L137.106 171.462L80.6485 138.866L86.4732 121.652C87.0243 120.024 88.5113 118.895 90.2287 118.802L113.287 117.549C114.638 117.474 115.941 118.055 116.789 119.108Z" fill="#112B48"/>
<path d="M163.636 54.1534L125.233 57.8773C123.572 58.0385 122.163 59.1662 121.643 60.7518L112.266 89.3269C111.879 90.5088 112.034 91.8021 112.691 92.8584L120.855 105.988C121.586 107.164 122.849 107.905 124.232 107.968L162.524 109.737C163.172 109.767 163.818 109.646 164.412 109.385L177.825 103.48C179.758 102.629 180.76 100.476 180.166 98.4492L168.077 57.1569C167.51 55.2196 165.646 53.9586 163.636 54.1534Z" fill="#193B66"/>
<path d="M168.078 57.1568L180.167 98.4491C180.502 99.5907 180.329 100.77 179.771 101.736L119.594 66.9928L121.643 60.7531C122.164 59.1667 123.573 58.0381 125.233 57.8765L163.637 54.1525C165.645 53.9589 167.51 55.2201 168.078 57.1568Z" fill="#112B48"/>
<path d="M129.524 87.2892L104.294 130.989C103.133 133 103.822 135.572 105.833 136.733L142.491 157.898C144.502 159.059 147.074 158.369 148.235 156.358L173.465 112.658C174.626 110.647 173.937 108.075 171.926 106.914L135.268 85.7499C133.257 84.5889 130.685 85.278 129.524 87.2892Z" fill="#193B66"/>
<path d="M135.268 85.75L171.926 106.915C173.936 108.075 174.626 110.648 173.465 112.659L160.85 134.508L116.909 109.139L129.524 87.2893C130.685 85.2791 133.258 84.5895 135.268 85.75Z" fill="#112B48"/>
</g>
<defs>
<clipPath id="clip0">
<rect width="143.531" height="143.531" fill="white" transform="translate(0.736206 124.772) rotate(-60)"/>
</clipPath>
</defs>
</svg>
