<svg width="182" height="174" viewBox="0 0 182 174" fill="none" xmlns="http://www.w3.org/2000/svg">
<path d="M0 0C66.2742 0 120 53.7258 120 120V167.797C53.7258 167.797 0 114.071 0 47.7966V0Z" fill="#98B599"/>
<g clip-path="url(#clip0)">
<path d="M133.01 89.6591C128.485 90.7203 123.956 87.9121 122.895 83.3868C121.834 78.8614 124.642 74.3323 129.167 73.271L115.053 13.085C77.2872 21.9414 53.852 59.7358 62.7084 97.5012C71.5649 135.267 109.359 158.702 147.125 149.845L133.01 89.6591Z" fill="#FFA321"/>
<path d="M133.01 89.6591C128.485 90.7203 123.956 87.9122 122.895 83.3868C116.844 84.8056 88.9226 91.3537 62.7084 97.5012C71.5649 135.267 109.359 158.702 147.125 149.845L133.01 89.6591Z" fill="#FF7A09"/>
<path d="M79.7324 93.5088C86.3733 121.827 114.814 139.462 143.132 132.821L133.01 89.659C128.485 90.7203 123.956 87.9121 122.895 83.3867C121.833 78.8613 124.642 74.3325 129.167 73.2713L119.045 30.1089C90.727 36.7499 73.0915 65.1909 79.7324 93.5088Z" fill="#FFF566"/>
<path d="M123.936 77.0298L86.279 53.6801C79.1606 65.16 76.4119 79.3499 79.7323 93.5089L122.895 83.3868C122.364 81.1238 122.801 78.8603 123.936 77.0298Z" fill="#FEDD31"/>
<path d="M143.132 132.821L133.01 89.6591C130.748 90.1897 128.484 89.7528 126.654 88.6178L103.304 126.274C114.784 133.393 128.973 136.142 143.132 132.821Z" fill="#FFA321"/>
<path d="M126.653 88.6179C124.823 87.4829 123.425 85.6495 122.895 83.3868L79.7326 93.5089C83.0531 107.668 91.8237 119.156 103.304 126.275L126.653 88.6179Z" fill="#FCC10C"/>
</g>
<defs>
<clipPath id="clip0">
<rect width="140.471" height="140.471" fill="white" transform="translate(149.243 5.06696) rotate(76.8019)"/>
</clipPath>
</defs>
</svg>
