<svg width="312" height="359" viewBox="0 0 312 359" fill="none" xmlns="http://www.w3.org/2000/svg">
<path d="M0 79H80.2425C146.517 79 200.242 132.726 200.242 199V359H120C53.7257 359 0 305.274 0 239V79Z" fill="#4C5C59"/>
<g clip-path="url(#clip0)">
<path d="M263.376 204.085C242.537 196.833 250.602 165.058 253.948 131.409C230.801 134.161 207.92 124.5 193.749 105.992C179.579 87.4845 176.222 62.8748 184.918 41.248C169.281 41.4142 153.895 45.1938 139.961 52.2915C138.572 52.1679 136.45 52.2091 135.717 52.2091C123.643 52.4563 89.3179 56.8243 85.1972 99.597C81.1012 142.296 103.819 194.546 76.3707 204.089C75.7374 204.315 75.2541 204.836 75.0761 205.484C74.898 206.133 75.0474 206.827 75.4765 207.345C80.6026 213.353 87.9251 224.326 125.168 229.11C131.102 229.893 137.077 230.346 143.052 230.553V230.759C143.065 235.304 146.747 238.986 151.293 239H188.379C190.599 238.994 192.723 238.095 194.273 236.506C195.823 234.917 196.669 232.772 196.621 230.553C202.637 230.346 208.612 229.893 214.587 229.11C251.826 224.326 259.152 213.353 264.274 207.345C264.705 206.826 264.855 206.13 264.676 205.481C264.497 204.831 264.011 204.31 263.376 204.085Z" fill="#A56A43"/>
<path d="M196.621 195.238V230.759C196.607 235.305 192.925 238.986 188.379 239H151.293C146.747 238.986 143.065 235.305 143.052 230.759V195.362C158.13 209.496 181.608 209.442 196.621 195.238Z" fill="#F9C795"/>
<path d="M123.973 160.913C119.028 160.171 105.965 156.257 105.965 135.818C105.965 115.874 115.896 121.107 120.099 124.198C119.83 136.551 121.132 148.888 123.973 160.913Z" fill="#F9C795"/>
<path d="M219.532 126.299C219.194 144.018 217.624 160.089 210.26 175.747C202.303 192.968 189.109 205.87 169.836 205.87C150.415 205.87 137.526 193.244 129.289 175.747C121.748 159.405 120.318 142.275 120.099 124.198C119.687 105.786 121.575 85.3724 136.211 74.1724C139.013 81.2599 147.42 94.7758 169.836 94.7758C176.718 94.7758 182.281 94.817 186.937 95.0643C193.783 108.99 205.327 120.052 219.532 126.299Z" fill="#FDD7AD"/>
<path d="M233.707 135.818C233.707 156.257 220.644 160.171 215.699 160.913C218.393 149.576 219.681 137.951 219.532 126.299C223.987 128.26 228.643 129.725 233.418 130.667C233.63 132.376 233.727 134.097 233.707 135.818Z" fill="#F9C795"/>
<path d="M176.017 140.103C174.351 140.103 172.849 139.099 172.211 137.559C171.573 136.02 171.926 134.248 173.104 133.069L196.509 109.664C198.126 108.102 200.696 108.125 202.286 109.714C203.875 111.303 203.898 113.874 202.336 115.49L178.93 138.896C178.158 139.669 177.11 140.103 176.017 140.103Z" fill="#2980BA"/>
<path d="M246.069 1.23806e-05C219.188 -0.0164129 194.997 16.3119 184.959 41.2481H184.918C174.067 68.1251 182.041 98.9368 204.569 117.175C227.097 135.412 258.894 136.798 282.923 120.59C306.952 104.381 317.578 74.3805 309.106 46.6613C300.635 18.942 275.054 0.00646439 246.069 1.23806e-05Z" fill="#3B97D3"/>
<path d="M275.12 25.9604C250.849 35.8912 217.719 54.8052 201.607 87.4823C198.293 80.7835 196.586 73.4046 196.621 65.9311C196.637 47.3477 207.072 30.3426 223.632 21.9103C240.192 13.4781 260.082 15.0426 275.12 25.9604Z" fill="#FDD7AD"/>
<path d="M295.517 65.9311C295.512 88.9087 279.68 108.855 257.304 114.076C234.927 119.297 211.903 108.415 201.73 87.812C201.689 87.6884 201.607 87.606 201.607 87.4823C217.719 54.8053 250.849 35.8913 275.12 25.9604C287.937 35.2403 295.524 50.1069 295.517 65.9311Z" fill="#F9C795"/>
<path d="M229.587 94.7758C227.311 94.7758 225.466 92.9309 225.466 90.6551V84.6183C225.466 81.8626 226.844 79.2895 229.137 77.7615L238.978 71.2013L245.435 61.5136L238.261 47.1695C237.603 45.8485 237.702 44.2768 238.52 43.0488L246.762 30.6867C248.025 28.7932 250.584 28.2822 252.477 29.5453C254.371 30.8083 254.882 33.3672 253.619 35.2607L246.704 45.6324L252.807 57.8379C254.123 60.4792 253.926 63.6225 252.292 66.0793L245.835 75.7629C244.598 77.6008 244.31 77.5431 233.707 84.6101V90.6551C233.707 92.9309 231.862 94.7758 229.587 94.7758Z" fill="#CB8252"/>
<path d="M270.793 94.7757C269.365 94.775 268.04 94.0354 267.29 92.8209C266.539 91.6064 266.471 90.0901 267.109 88.8131L269.606 83.8229L262.107 78.8246C259.812 77.2975 258.432 74.7242 258.431 71.9677V68.9019L248.887 65.7208C246.725 65.0016 245.556 62.666 246.275 60.504C246.994 58.342 249.33 57.1723 251.492 57.8914L261.039 61.0726C264.408 62.1964 266.677 65.3512 266.672 68.9019V71.9677L274.172 76.9661C277.632 79.2711 278.834 83.7924 276.974 87.511L274.502 92.497C273.8 93.9008 272.362 94.7843 270.793 94.7757Z" fill="#CB8252"/>
<path d="M241.948 49.4483C240.988 49.4483 241.631 49.5678 228.284 45.1174C226.885 44.6522 225.841 43.4762 225.545 42.0324C225.248 40.5886 225.745 39.0963 226.847 38.1178C227.949 37.1392 229.49 36.8229 230.888 37.2881L243.25 41.4088C245.183 42.037 246.369 43.9804 246.044 45.9865C245.719 47.9926 243.98 49.4623 241.948 49.4483Z" fill="#CB8252"/>
<path d="M246.069 119.5C216.484 119.5 192.5 95.5163 192.5 65.931C192.5 36.3457 216.484 12.3621 246.069 12.3621C275.654 12.3621 299.638 36.3457 299.638 65.931C299.604 95.5022 275.64 119.466 246.069 119.5ZM246.069 20.6034C221.035 20.6034 200.741 40.8973 200.741 65.931C200.741 90.9648 221.035 111.259 246.069 111.259C271.103 111.259 291.397 90.9648 291.397 65.931C291.367 40.9095 271.09 20.633 246.069 20.6034Z" fill="#285680"/>
</g>
<defs>
<clipPath id="clip0">
<rect width="239" height="239" fill="white" transform="translate(73)"/>
</clipPath>
</defs>
</svg>
