<svg width="266" height="319" viewBox="0 0 266 319" fill="none" xmlns="http://www.w3.org/2000/svg">
<path d="M0 39H80.2425C146.517 39 200.242 92.7258 200.242 159V319H120C53.7257 319 0 265.274 0 199V39Z" fill="#98B599"/>
<g clip-path="url(#clip0)">
<path d="M99.4188 209.836C99.1614 208.213 97.7627 207.019 96.1204 207.019H64.4186C55.4384 207.019 46.8007 209.714 39.4384 214.812C38.5375 215.436 38 216.462 38 217.558V224.66C38 226.505 39.4949 228 41.3398 228H96.3742C97.26 228 98.1096 227.648 98.7362 227.022C99.3627 226.395 99.7141 225.546 99.7141 224.66L99.7123 213.532C99.7123 212.307 99.6134 211.063 99.4188 209.836Z" fill="#FFCCBC"/>
<path d="M264.562 214.812C257.199 209.714 248.561 207.02 239.581 207.02H207.88C206.238 207.02 204.839 208.214 204.582 209.836C204.387 211.064 204.288 212.307 204.288 213.531L204.286 224.66C204.286 225.545 204.638 226.395 205.264 227.022C205.89 227.648 206.74 228 207.626 228H262.66C264.505 228 266 226.505 266 224.66V217.558C266 216.462 265.463 215.436 264.562 214.812Z" fill="#FFCCBC"/>
<path d="M159.075 197.964C154.642 192.294 152 185.155 152 177.4C152 185.155 149.358 192.293 144.925 197.964C142.203 201.445 140.798 205.777 140.797 210.197L140.796 228H163.204L163.202 210.197C163.202 205.777 161.797 201.445 159.075 197.964Z" fill="#FFAB91"/>
<path d="M264.571 214.819C257.627 210.007 249.546 207.337 241.114 207.047C241.139 207.059 241.164 207.072 241.188 207.084C245.508 209.219 248.188 213.679 248.188 218.497V219.952C248.188 221.937 246.579 223.546 244.594 223.546H204.286V224.574C204.286 225.041 204.357 225.509 204.538 225.938C205.084 227.228 206.316 227.999 207.626 227.999H262.66C264.505 227.999 266 226.503 266 224.659V217.557C266 216.467 265.468 215.441 264.571 214.819Z" fill="#FF8A65"/>
<path d="M154.911 111.783C155.021 109.302 155.888 107.019 157.289 105.16C157.765 104.53 157.781 103.674 157.362 103.006C155.061 99.3408 153.771 94.9771 153.889 90.304C154.19 78.4008 164.521 68.2156 176.427 68.0749C180.44 68.0273 184.216 69.0185 187.508 70.7931C188.506 71.331 189.745 71.2206 190.587 70.4605C193.579 67.7565 197.632 66.2051 202.05 66.5132C209.382 67.0244 215.424 72.7685 216.293 80.0672C216.479 81.6351 216.427 83.1617 216.17 84.6178C215.979 85.7031 216.433 86.787 217.345 87.4055C217.675 87.6295 217.999 87.8615 218.32 88.0975L219.46 72.6113C222.348 33.402 191.315 0 152 0C112.685 0 81.6526 33.402 84.54 72.6109L84.6772 74.4705C89.3138 70.4337 95.3745 67.9885 102.038 67.9529C113.355 67.8923 123.036 74.9007 126.94 84.8169C127.205 85.488 127.879 85.8941 128.597 85.8224C129.578 85.724 130.601 85.7685 131.651 85.9903C135.969 86.9032 139.219 90.6304 139.52 95.0332C139.692 97.5497 138.927 99.8818 137.541 101.72C137.143 102.247 137.13 102.964 137.481 103.523C138.799 105.622 139.72 107.996 140.139 110.539C141.206 110.043 142.392 109.759 143.647 109.759C148.26 109.759 152 113.499 152 118.112C152 115.58 153.131 113.315 154.911 111.783Z" fill="#FFCCBC"/>
<path d="M96.3743 228H140.796L140.798 210.197C140.798 205.778 142.203 201.446 144.925 197.964C149.358 192.294 152 185.156 152 177.4V118.113C152 113.499 148.26 109.759 143.646 109.759C139.033 109.759 135.293 113.499 135.293 118.113V144.398V106.952C135.293 102.338 131.553 98.5981 126.939 98.5981C122.326 98.5981 118.586 102.338 118.586 106.952V144.398V96.9771C118.586 92.3637 114.845 88.6235 110.232 88.6235C105.619 88.6235 101.878 92.3637 101.878 96.9771V144.398V106.952C101.878 102.338 98.1381 98.5981 93.5247 98.5981C88.9113 98.5981 85.1711 102.338 85.1711 106.952V151.23C85.1711 151.693 84.5588 151.857 84.3277 151.457L79.9543 143.881C77.6475 139.886 72.5385 138.517 68.5427 140.824C64.5473 143.131 63.1784 148.24 65.4852 152.235L89.1433 193.212C90.0246 194.85 91.0381 196.405 92.1701 197.864C94.9043 201.389 96.3729 205.731 96.3734 210.192L96.3743 228Z" fill="#FFCCBC"/>
<path d="M207.626 228H163.204L163.203 210.197C163.202 205.778 161.797 201.446 159.075 197.964C154.642 192.294 152 185.156 152 177.4V118.113C152 113.499 155.74 109.759 160.354 109.759C164.967 109.759 168.707 113.499 168.707 118.113V144.398V106.952C168.707 102.338 172.447 98.5981 177.061 98.5981C181.674 98.5981 185.414 102.338 185.414 106.952V144.398V96.9771C185.414 92.3637 189.155 88.6235 193.768 88.6235C198.382 88.6235 202.122 92.3637 202.122 96.9771V144.398V106.952C202.122 102.338 205.862 98.5981 210.475 98.5981C215.089 98.5981 218.829 102.338 218.829 106.952V151.23C218.829 151.693 219.441 151.857 219.672 151.457L224.046 143.881C226.352 139.886 231.462 138.517 235.457 140.824C239.453 143.131 240.822 148.24 238.515 152.235L214.857 193.212C213.975 194.85 212.962 196.405 211.83 197.864C209.096 201.389 207.627 205.731 207.627 210.192L207.626 228Z" fill="#FFCCBC"/>
<path d="M192.794 68.802C195.449 67.149 198.64 66.2753 202.05 66.5131C209.382 67.0244 215.424 72.7684 216.292 80.0671C216.479 81.6351 216.426 83.1616 216.17 84.6178C215.979 85.703 216.432 86.7869 217.344 87.4054C217.674 87.6294 217.998 87.8614 218.319 88.0974L219.46 72.6113C221.539 44.3838 206.036 19.1675 182.521 7.25586C183.689 12.0234 184.315 17.0037 184.315 22.1315C184.315 31.9128 182.058 41.1655 178.045 49.4051C181.656 56.8102 186.692 63.3933 192.794 68.802Z" fill="#5D4037"/>
<path d="M229.952 84.501H218.585L218.32 88.0973C226.391 94.028 231.562 103.675 231.294 114.52C231.205 118.109 230.526 121.536 229.364 124.721C238.284 120.338 244.425 111.167 244.425 100.558V98.9745C244.425 90.9812 237.945 84.501 229.952 84.501Z" fill="#FF8A65"/>
<path d="M182.526 7.25815C173.376 2.62245 163.013 0 152 0C112.685 0 81.6522 33.402 84.5401 72.6109L84.6768 74.4705C89.3134 70.4337 95.3741 67.9885 102.038 67.9529C113.163 67.8932 122.704 74.6682 126.733 84.3195C158.942 81.8738 184.314 54.9654 184.314 22.1311C184.314 17.0051 183.692 12.0248 182.526 7.25815Z" fill="#8D6E63"/>
<path d="M157.289 105.16C155.888 107.019 155.02 109.302 154.911 111.783C156.374 110.525 158.273 109.759 160.354 109.759C164.967 109.759 168.707 113.499 168.707 118.113V106.952C168.707 102.338 172.447 98.598 177.061 98.598C181.674 98.598 185.414 102.338 185.414 106.952V96.9771C185.414 92.3637 189.155 88.6235 193.768 88.6235C198.381 88.6235 202.122 92.3637 202.122 96.9771V106.952C202.122 102.338 205.862 98.598 210.475 98.598C215.089 98.598 218.829 102.338 218.829 106.952V139.015C226.221 133.386 231.044 124.574 231.293 114.52C231.571 103.244 225.972 93.2601 217.343 87.4051C216.432 86.7866 215.978 85.7027 216.169 84.6175C216.425 83.1608 216.478 81.6348 216.291 80.0668C215.423 72.7681 209.381 67.024 202.049 66.5128C197.631 66.2047 193.578 67.7561 190.585 70.4601C189.744 71.2202 188.505 71.3311 187.506 70.7927C184.215 69.0182 180.438 68.0269 176.426 68.0745C164.519 68.2153 154.188 78.4004 153.888 90.3037C153.77 94.9768 155.06 99.3404 157.36 103.005C157.781 103.674 157.765 104.53 157.289 105.16Z" fill="#BBDEFB"/>
<path d="M217.344 87.4048C216.433 86.7863 215.979 85.7024 216.17 84.6172C216.426 83.1606 216.479 81.6345 216.292 80.0665C215.424 72.7679 209.382 67.0238 202.05 66.5126C200.413 66.3986 198.826 66.541 197.324 66.9018C197.904 68.2355 198.302 69.6645 198.48 71.1603C198.667 72.7282 198.614 74.2548 198.357 75.7109C198.166 76.7962 198.62 77.88 199.532 78.4986C206.419 83.1721 211.373 90.4779 212.952 98.9709C216.357 100.026 218.83 103.2 218.83 106.951V139.015C226.222 133.386 231.045 124.574 231.294 114.52C231.572 103.243 225.973 93.2598 217.344 87.4048Z" fill="#64B5F6"/>
<path d="M85.1701 115.004V106.952C85.1701 102.338 88.9103 98.5981 93.5238 98.5981C98.1372 98.5981 101.877 102.338 101.877 106.952V96.9772C101.877 92.3637 105.618 88.6236 110.231 88.6236C114.844 88.6236 118.585 92.3637 118.585 96.9772V106.952C118.585 102.338 122.325 98.5981 126.938 98.5981C131.552 98.5981 135.292 102.338 135.292 106.952V118.113C135.292 114.754 137.279 111.865 140.138 110.539C139.719 107.996 138.798 105.622 137.48 103.523C137.129 102.964 137.143 102.247 137.54 101.72C138.926 99.8819 139.691 97.5498 139.519 95.0334C139.218 90.6301 135.968 86.9033 131.65 85.9904C130.6 85.7686 129.577 85.7237 128.596 85.8225C127.878 85.8947 127.204 85.4885 126.94 84.817C123.036 74.9008 113.354 67.8925 102.037 67.953C87.5797 68.0305 75.9437 79.4305 75.5861 93.8836C75.3773 102.377 79.1513 109.991 85.1701 115.004Z" fill="#BBDEFB"/>
<path d="M137.481 103.523C137.129 102.964 137.143 102.247 137.541 101.72C138.927 99.8819 139.692 97.5498 139.52 95.0334C139.219 90.6301 135.969 86.9033 131.651 85.9904C130.601 85.7686 129.578 85.7237 128.596 85.8225C127.878 85.8947 127.204 85.4885 126.94 84.817C123.036 74.9008 113.354 67.8925 102.038 67.953C98.9526 67.9695 95.998 68.5057 93.2522 69.4729C100.509 72.0441 106.316 77.676 109.128 84.817C109.392 85.4881 110.066 85.8942 110.784 85.8225C111.765 85.7241 112.788 85.7686 113.838 85.9904C118.156 86.9033 121.406 90.6306 121.707 95.0334C121.879 97.5498 121.114 99.8819 119.728 101.72C119.413 102.139 119.343 102.676 119.502 103.16C120.884 100.454 123.692 98.5981 126.939 98.5981C131.552 98.5981 135.292 102.338 135.292 106.952V118.113C135.292 114.754 137.279 111.865 140.138 110.539C139.72 107.996 138.798 105.622 137.481 103.523Z" fill="#64B5F6"/>
<path d="M85.1702 127.435V115.004C79.1513 109.992 75.3769 102.377 75.5871 93.8837C75.6694 90.5599 76.3543 87.4013 77.5264 84.501H74.0481C66.0547 84.501 59.575 90.9807 59.575 98.9741V100.557C59.575 114.979 70.9188 126.749 85.1702 127.435Z" fill="#FF8A65"/>
<path d="M228.416 70.0004C233.26 70.0004 237.186 66.074 237.186 61.2304C237.186 56.3869 233.26 52.4604 228.416 52.4604C223.573 52.4604 219.646 56.3869 219.646 61.2304C219.646 66.074 223.573 70.0004 228.416 70.0004Z" fill="#BBDEFB"/>
<path d="M241.852 46.865C245.608 46.865 248.652 43.8206 248.652 40.0651C248.652 36.3096 245.608 33.2651 241.852 33.2651C238.097 33.2651 235.052 36.3096 235.052 40.0651C235.052 43.8206 238.097 46.865 241.852 46.865Z" fill="#BBDEFB"/>
<path d="M66.7806 64.7764C70.7601 64.7764 73.9862 61.5504 73.9862 57.5708C73.9862 53.5913 70.7601 50.3652 66.7806 50.3652C62.801 50.3652 59.575 53.5913 59.575 57.5708C59.575 61.5504 62.801 64.7764 66.7806 64.7764Z" fill="#BBDEFB"/>
<path d="M143.639 109.759C139.171 109.763 135.535 113.276 135.314 117.689C135.307 117.83 135.292 117.969 135.292 118.112V106.951C135.292 102.919 132.435 99.5538 128.634 98.7705V141.941C128.634 143.715 129.964 145.273 131.733 145.397C131.762 145.398 131.79 145.4 131.818 145.401C133.747 145.489 135.292 147.016 135.292 148.947V168.494C135.292 176.235 132.66 183.362 128.241 189.027C125.515 192.522 124.09 196.857 124.09 201.289C124.09 207.433 119.109 212.414 112.965 212.414H96.3724L96.3738 228H140.796L140.797 210.197C140.798 205.764 142.224 201.428 144.95 197.932C149.368 192.267 152 185.141 152 177.4V118.322C152 113.722 148.239 109.755 143.639 109.759Z" fill="#FF8A65"/>
<path d="M115.244 145.404C117.088 145.404 118.583 143.909 118.583 142.065V96.9402C118.566 92.9159 115.704 89.5632 111.904 88.791V142.065C111.904 143.909 113.399 145.404 115.244 145.404Z" fill="#FF8A65"/>
<path d="M101.878 142.065L101.878 106.951C101.878 102.912 99.0096 99.5414 95.1986 98.7661V142.065C95.1986 143.91 96.694 145.405 98.5385 145.405C100.383 145.405 101.878 143.909 101.878 142.065Z" fill="#FF8A65"/>
<path d="M235.458 140.824C231.463 138.517 226.354 139.886 224.047 143.881L219.673 151.457C219.442 151.857 218.829 151.693 218.829 151.231V106.947C218.827 102.908 215.96 99.5409 212.15 98.7656V147.69C212.15 158.694 209.253 169.504 203.751 179.034L197.045 190.649C196.157 192.3 195.134 193.866 193.992 195.335C191.262 198.845 189.815 203.183 189.815 207.629V207.859C189.815 213.878 184.935 218.757 178.916 218.757H163.203L163.204 228H207.626L207.628 210.192C207.628 205.745 209.076 201.407 211.806 197.897C212.948 196.428 213.97 194.862 214.858 193.212L238.516 152.235C240.823 148.239 239.454 143.13 235.458 140.824Z" fill="#FF8A65"/>
<path d="M168.671 142.065V117.391C168.352 113.664 165.59 110.637 161.991 109.921V142.065C161.991 143.909 163.487 145.405 165.331 145.405C167.176 145.405 168.671 143.909 168.671 142.065Z" fill="#FF8A65"/>
<path d="M182.054 145.405C183.899 145.405 185.394 143.909 185.394 142.065V106.534C185.202 102.675 182.403 99.5033 178.714 98.7627V142.065C178.714 143.909 180.21 145.405 182.054 145.405Z" fill="#FF8A65"/>
<path d="M198.759 145.405C200.604 145.405 202.099 143.909 202.099 142.065V96.5129C201.887 92.6738 199.094 89.5246 195.419 88.7876V142.065C195.419 143.909 196.915 145.405 198.759 145.405Z" fill="#FF8A65"/>
</g>
<defs>
<clipPath id="clip0">
<rect width="228" height="228" fill="white" transform="translate(38)"/>
</clipPath>
</defs>
</svg>
