<svg width="248" height="308" viewBox="0 0 248 308" fill="none" xmlns="http://www.w3.org/2000/svg">
<path d="M0 28H80.2425C146.517 28 200.242 81.7258 200.242 148V308H120C53.7257 308 0 254.274 0 188V28Z" fill="#98B599"/>
<path d="M157.502 213.672C149.704 218.961 142.83 225.932 132.724 225.932C122.619 225.932 115.745 218.961 107.946 213.672C104.146 211.094 100.285 208.577 96.5256 205.926V234H169.141V205.777C165.316 208.488 161.375 211.046 157.502 213.672Z" fill="#DBB38D"/>
<path d="M201.415 88.7705C201.415 85.4262 200.738 82.2433 199.515 79.3427C194.9 68.4182 181.971 63.9602 170.82 67.9946C164.745 70.1932 153.372 72.634 132.834 72.634C112.296 72.634 100.924 70.1932 94.8481 67.9946C83.6978 63.9602 70.7681 68.4182 66.1529 79.3427C64.9304 82.2391 64.2527 85.4262 64.2527 88.7705L64.1439 125.534C64.1439 150.864 66.1168 178.729 85.2265 196.866C92.0764 203.373 100.149 208.384 107.947 213.672C115.745 218.957 122.619 225.932 132.725 225.932C142.83 225.932 149.704 218.957 157.503 213.672C165.297 208.384 173.369 203.373 180.223 196.866C199.329 178.728 201.414 150.405 201.414 125.078V88.7705H201.415Z" fill="#FDD7AD"/>
<path d="M189.313 16.1558C170.15 -1.99788 148.971 16.1558 148.971 16.1558C139.725 16.1558 140.903 0.0192982 140.903 0.0192982C140.903 0.0192982 114.556 -1.87266 80.3901 32.2928L75.896 36.7869C73.0439 39.639 68.9611 41.1073 65.0158 40.2724C60.9536 39.4091 57.8753 36.5771 64.2536 28.2584C64.2536 28.2584 19.2605 73.9251 64.1809 112.907L64.2536 88.771C64.2536 85.4267 64.9313 82.2397 66.1537 79.3432C70.7689 68.4187 83.6983 63.9608 94.849 67.9951C100.924 70.1937 112.297 72.6345 132.835 72.6345C153.373 72.6345 164.745 70.1937 170.821 67.9951C181.971 63.9608 194.901 68.4187 199.516 79.3432C200.738 82.2397 201.416 85.4267 201.416 88.771V112.976C244.278 56.6666 189.313 16.1558 189.313 16.1558Z" fill="#59474E"/>
</svg>
