<svg width="184" height="169" viewBox="0 0 184 169" fill="none" xmlns="http://www.w3.org/2000/svg">
<path d="M0 1C66.2742 1 120 54.7258 120 121V168.797C53.7258 168.797 0 115.071 0 48.7966V1Z" fill="#98B599"/>
<g clip-path="url(#clip0)">
<path d="M131.976 67.741V56.0916H60.7849V67.741C60.7849 68.7462 60.2598 69.6741 59.4068 70.2053C55.7306 72.4944 46.0722 80.1295 47.6202 96.4552C47.6202 96.4552 48.469 127.632 77.3078 144H115.453C144.292 127.632 145.14 96.4552 145.14 96.4552C146.688 80.1295 137.03 72.4947 133.354 70.2053C132.501 69.6741 131.976 68.7459 131.976 67.741Z" fill="#C4E2FF"/>
<path d="M133.343 58.867H59.418C58.1074 58.867 57.0448 57.8045 57.0448 56.4938V47.0843C57.0448 45.7737 58.1074 44.7112 59.418 44.7112H133.343C134.653 44.7112 135.716 45.7737 135.716 47.0843V56.4938C135.716 57.8047 134.653 58.867 133.343 58.867Z" fill="#EAF6FF"/>
<path d="M135.716 47.0846V56.4927C135.716 57.8048 134.653 58.8679 133.344 58.8679H127.487C128.796 58.8679 129.859 57.8048 129.859 56.4927V47.0846C129.859 45.7726 128.796 44.7123 127.487 44.7123H133.344C134.653 44.7123 135.716 45.7726 135.716 47.0846Z" fill="#D8ECFE"/>
<path d="M145.141 96.4561C145.141 96.4561 144.293 127.632 115.452 144H109.563C138.404 127.632 139.253 96.4561 139.253 96.4561C140.799 80.1284 131.142 74.9031 127.464 72.6148C126.612 72.0846 126.085 71.1548 126.085 70.1499V58.8679H131.977V67.7399C131.977 68.7451 132.501 69.6749 133.355 70.2048C137.031 72.493 146.688 80.1284 145.141 96.4561Z" fill="#B3DAFE"/>
<path d="M66.1295 90.5529H47.547C47.4073 92.3799 47.4182 94.3439 47.6199 96.4561C47.6199 96.4561 48.4676 127.631 77.3089 144H115.452C144.294 127.63 145.141 96.4561 145.141 96.4561C145.343 94.3439 145.354 92.3799 145.214 90.5529H95.6062H66.1295Z" fill="#FED402"/>
<path d="M145.141 96.4561C145.141 96.4561 144.293 127.632 115.452 144H109.563C138.404 127.632 139.253 96.4561 139.253 96.4561C139.455 94.3012 139.467 92.34 139.319 90.5529H145.214C145.228 90.7529 145.243 90.9585 145.254 91.1613C145.277 91.5553 145.292 91.955 145.301 92.3634C145.327 93.661 145.278 95.0251 145.141 96.4561Z" fill="#FAC600"/>
<path d="M72.0647 26.1613C69.322 26.1613 67.0984 23.9378 67.0984 21.195V9.88538C67.0984 7.14263 69.322 4.91907 72.0647 4.91907C74.8074 4.91907 77.031 7.14263 77.031 9.88538V21.1953C77.031 23.938 74.8074 26.1613 72.0647 26.1613Z" fill="#FED402"/>
<path d="M91.9304 31.0807C89.1877 31.0807 86.9641 28.8571 86.9641 26.1143V4.96631C86.9641 2.22356 89.1877 0 91.9304 0C94.6732 0 96.8967 2.22356 96.8967 4.96631V26.1143C96.8967 28.8571 94.6732 31.0807 91.9304 31.0807Z" fill="#FED402"/>
<path d="M81.9973 31.0807C79.2546 31.0807 77.031 28.8571 77.031 26.1143V4.96631C77.031 2.22356 79.2543 0 81.9973 0C84.7401 0 86.9636 2.22356 86.9636 4.96631V26.1143C86.9633 28.8571 84.7401 31.0807 81.9973 31.0807Z" fill="#FEE97D"/>
<path d="M77.0305 9.88453V21.195C77.0305 23.9392 74.8078 26.1619 72.0636 26.1619C71.1518 26.1619 70.2937 25.9147 69.5608 25.4855C71.0326 24.6243 72.022 23.0243 72.022 21.195V9.88453C72.022 8.514 71.4649 7.27453 70.5679 6.37453C70.267 6.0736 69.9304 5.81147 69.5608 5.59688C70.2937 5.16797 71.1518 4.92047 72.0636 4.92047C73.4373 4.92047 74.6767 5.47482 75.5765 6.37453C76.4762 7.27425 77.0305 8.51372 77.0305 9.88453Z" fill="#FAC600"/>
<path d="M96.8962 4.96516V26.114C96.8962 28.8582 94.6735 31.0809 91.9294 31.0809C91.0175 31.0809 90.1625 30.8337 89.4265 30.4045C90.8983 29.5433 91.8877 27.9433 91.8877 26.114V4.96516C91.8877 3.59463 91.3337 2.35207 90.4337 1.45516C90.1327 1.15422 89.7961 0.894911 89.4265 0.677505C90.1625 0.248599 91.0175 0.00109863 91.9294 0.00109863C93.2999 0.00109863 94.5425 0.558255 95.4422 1.45516C96.3388 2.35207 96.8962 3.59463 96.8962 4.96516Z" fill="#FAC600"/>
<path d="M86.9643 4.96516V26.114C86.9643 28.8582 84.7385 31.0809 81.9974 31.0809C81.0828 31.0809 80.2275 30.8337 79.4915 30.4045C80.9663 29.5433 81.9555 27.9433 81.9555 26.114V4.96516C81.9555 3.59463 81.3983 2.35207 80.5014 1.45516C80.2005 1.15422 79.8607 0.894911 79.4915 0.677505C80.2275 0.248599 81.0825 0.00109863 81.9974 0.00109863C83.3679 0.00109863 84.6105 0.558255 85.5102 1.45516C86.4071 2.35207 86.9643 3.59463 86.9643 4.96516Z" fill="#FEE45A"/>
<path d="M106.501 11.3054H166.091V19.7753H106.501V11.3054Z" fill="#C68D7A"/>
<path d="M168.952 22.7314C173.146 22.7314 176.546 19.3316 176.546 15.1377C176.546 10.9438 173.146 7.54395 168.952 7.54395C164.758 7.54395 161.359 10.9438 161.359 15.1377C161.359 19.3316 164.758 22.7314 168.952 22.7314Z" fill="#AA6A51"/>
<path d="M176.545 15.1374C176.545 19.3328 173.146 22.7323 168.953 22.7323C166.823 22.7323 164.898 21.8562 163.521 20.444C163.545 20.4471 163.569 20.4471 163.593 20.4471C167.785 20.4471 171.185 17.0474 171.185 12.8522C171.185 10.7873 170.363 8.91614 169.025 7.54871C173.184 7.58414 176.545 10.969 176.545 15.1374Z" fill="#935B44"/>
<path d="M101.863 26.1613C99.12 26.1613 96.8965 23.9378 96.8965 21.195V9.88538C96.8965 7.14263 99.12 4.91907 101.863 4.91907C104.606 4.91907 106.829 7.14263 106.829 9.88538V21.1953C106.829 23.938 104.606 26.1613 101.863 26.1613Z" fill="#FEE97D"/>
<path d="M106.83 9.83081V21.2484C106.83 23.9628 104.631 26.1619 101.916 26.1619H101.809C100.91 26.1619 100.066 25.9206 99.3422 25.4945C100.823 24.6364 101.821 23.0333 101.821 21.195V9.88453C101.821 8.514 101.267 7.27453 100.367 6.37453C100.06 6.06769 99.7146 5.80247 99.3391 5.58478C100.063 5.16178 100.906 4.92047 101.809 4.92047H101.916C104.631 4.92047 106.83 7.11928 106.83 9.83081Z" fill="#FEE45A"/>
<path d="M145.007 125.958V138.418L153.702 143.438C154.999 144.187 156.597 144.187 157.894 143.438L164.493 139.628C165.79 138.879 166.589 137.495 166.589 135.998V128.378C166.589 126.881 165.79 125.497 164.493 124.748L155.798 119.728L145.007 125.958Z" fill="#FED402"/>
<path d="M166.59 128.379V135.997C166.59 137.494 165.791 138.879 164.493 139.629L159.233 142.665C160.223 141.871 160.797 140.672 160.797 139.403V124.396C160.797 123.643 160.594 122.913 160.221 122.282L164.493 124.747C165.791 125.497 166.59 126.881 166.59 128.379Z" fill="#FAC600"/>
<path d="M134.222 109.688V119.728L145.013 125.958L155.804 119.728V109.688C155.804 108.19 155.005 106.806 153.708 106.057L147.109 102.247C145.812 101.498 144.214 101.498 142.917 102.247L136.318 106.057C135.021 106.806 134.222 108.19 134.222 109.688Z" fill="#FEE97D"/>
<path d="M155.803 109.688V119.727L150.01 123.072V105.844C150.01 105.001 149.758 104.196 149.306 103.518L153.706 106.058C155.004 106.805 155.803 108.19 155.803 109.688Z" fill="#FEE45A"/>
<path d="M123.431 128.378V135.998C123.431 137.495 124.23 138.879 125.527 139.628L132.126 143.438C133.423 144.187 135.021 144.187 136.318 143.438L145.013 138.418V125.958L134.222 119.728L125.527 124.748C124.23 125.497 123.431 126.881 123.431 128.378Z" fill="#FFF5C6"/>
<path d="M145.014 125.957V138.418L139.215 141.767V122.609L145.014 125.957Z" fill="#FEF0AE"/>
<path d="M71.9653 44.7115V77.3612C71.9653 80.3388 74.379 82.7525 77.3566 82.7525C80.3342 82.7525 82.7479 80.3388 82.7479 77.3612V70.7203C82.7479 67.7672 85.1419 65.3735 88.0947 65.3735C91.0479 65.3735 93.4416 67.7675 93.4416 70.7203V70.7715C93.4416 73.7491 95.8553 76.1628 98.8329 76.1628C101.81 76.1628 104.224 73.7491 104.224 70.7715V44.7115H71.9653Z" fill="#FED402"/>
<path d="M104.225 44.7123V70.7723C104.225 72.2613 103.623 73.6079 102.646 74.5841C101.67 75.5603 100.323 76.1628 98.8345 76.1628C97.7745 76.1628 96.7837 75.8557 95.9495 75.3258C96.2884 75.1143 96.5983 74.8654 96.8793 74.5844C97.8524 73.6082 98.4579 72.2613 98.4579 70.7726V44.7126H104.225V44.7123Z" fill="#FAC600"/>
</g>
<defs>
<clipPath id="clip0">
<rect width="144" height="144" fill="white" transform="translate(40)"/>
</clipPath>
</defs>
</svg>
