<svg width="173" height="168" viewBox="0 0 173 168" fill="none" xmlns="http://www.w3.org/2000/svg">
<path d="M0 0C66.2742 0 120 53.7258 120 120V167.797C53.7258 167.797 0 114.071 0 47.7966V0Z" fill="#4C5C59"/>
<g clip-path="url(#clip0)">
<path d="M103.5 52.6128C91.983 52.6128 82.613 61.9828 82.613 73.5001C82.613 85.0172 91.983 94.3872 103.5 94.3872C115.017 94.3872 124.387 85.0172 124.387 73.5001C124.387 61.9828 115.017 52.6128 103.5 52.6128Z" fill="#EAEAEA"/>
<path d="M106.417 4.98479C104.808 3.67157 102.497 3.67157 100.887 4.98479C89.4938 14.2782 81.8119 34.4905 85.6999 52.2513C89.9195 71.5296 117.386 71.5238 121.605 52.2513C125.532 34.3029 117.677 14.1694 106.417 4.98479Z" fill="#C8F29C"/>
<path d="M121.605 94.4443C117.385 75.1668 89.9185 75.1707 85.7 94.444C81.7846 112.331 89.6563 132.855 100.887 142.015C102.496 143.328 104.808 143.328 106.417 142.015C117.564 132.924 125.547 112.458 121.605 94.4443Z" fill="#C8F29C"/>
<path d="M172.015 70.5828C162.722 59.1898 142.51 51.5079 124.749 55.3956C105.47 59.615 105.476 87.0823 124.749 91.3003C142.565 95.1995 162.753 87.4676 172.015 76.1129C173.328 74.5033 173.328 72.1926 172.015 70.5828Z" fill="#C8F29C"/>
<path d="M82.556 55.3956C64.6631 51.4794 44.1421 59.3557 34.9849 70.5827C33.6722 72.1926 33.6722 74.5032 34.9849 76.1131C44.0768 87.2597 64.5419 95.2424 82.5557 91.3005C101.834 87.0809 101.828 59.6138 82.556 55.3956Z" fill="#C8F29C"/>
<path d="M134.67 66.7079C127.711 63.0704 126.605 59.256 127.288 54.9182C124.5 55.3617 122.255 55.8957 119.777 57.2228C120.591 55.7037 121.213 54.0392 121.605 52.2513C123.641 42.9464 122.568 33.3613 119.403 24.5125C114.134 25.2561 107.334 30.2695 99.3989 39.5965C94.4288 45.4386 89.3752 46.8784 84.7971 46.1306C85.0922 49.8838 85.7426 53.8915 87.5275 57.2226C82.0936 54.3118 73.3719 53.932 66.8069 54.7268C66.3377 58.7258 65.5869 62.3808 64.402 64.7508C60.3007 72.9533 52.3717 77.3279 63.0349 84.4441C65.8513 86.3236 67.5987 89.0977 68.6467 92.1618C74.4038 92.6532 82.4102 92.2149 87.5272 89.4733C86.7135 90.9924 86.0915 92.6564 85.7002 94.4443C83.8785 102.767 84.5415 111.252 86.929 119.324C93.2872 120.036 99.785 117.911 103.5 108.613C109.056 94.7101 116.995 95.605 122.277 98.3449C121.84 94.9362 121.249 92.2198 119.778 89.4733C123.949 91.708 130.16 92.3844 134.873 92.3393C139.944 83.6531 144.357 71.7718 134.67 66.7079ZM112.437 82.1327C107.058 79.2749 100.267 79.264 94.8679 82.1327C97.7256 76.7532 97.7363 69.9629 94.8676 64.5632C100.236 67.4152 107.027 67.4377 112.437 64.5632C109.579 69.9424 109.568 76.7327 112.437 82.1327Z" fill="#ACED70"/>
</g>
<defs>
<clipPath id="clip0">
<rect width="139" height="139" fill="white" transform="translate(34 4)"/>
</clipPath>
</defs>
</svg>
