<svg width="324" height="347" viewBox="0 0 324 347" fill="none" xmlns="http://www.w3.org/2000/svg">
<path d="M0 67H80.2425C146.517 67 200.242 120.726 200.242 187V347H120C53.7257 347 0 293.274 0 227V67Z" fill="#98B599"/>
<g clip-path="url(#clip0)">
<path d="M275.376 204.085C254.537 196.833 262.602 165.058 265.948 131.409C242.801 134.161 219.92 124.5 205.749 105.992C191.579 87.4845 188.222 62.8748 196.918 41.248C181.281 41.4142 165.895 45.1938 151.961 52.2915C150.572 52.1679 148.45 52.2091 147.717 52.2091C135.643 52.4563 101.318 56.8243 97.1972 99.597C93.1012 142.296 115.819 194.546 88.3707 204.089C87.7374 204.315 87.2541 204.836 87.0761 205.484C86.898 206.133 87.0474 206.827 87.4765 207.345C92.6026 213.353 99.9251 224.326 137.168 229.11C143.102 229.893 149.077 230.346 155.052 230.553V230.759C155.065 235.304 158.747 238.986 163.293 239H200.379C202.599 238.994 204.723 238.095 206.273 236.506C207.823 234.917 208.669 232.772 208.621 230.553C214.637 230.346 220.612 229.893 226.587 229.11C263.826 224.326 271.152 213.353 276.274 207.345C276.705 206.826 276.855 206.13 276.676 205.481C276.497 204.831 276.011 204.31 275.376 204.085Z" fill="#A56A43"/>
<path d="M208.621 195.238V230.759C208.607 235.305 204.925 238.986 200.379 239H163.293C158.747 238.986 155.065 235.305 155.052 230.759V195.362C170.13 209.496 193.608 209.442 208.621 195.238Z" fill="#F9C795"/>
<path d="M135.973 160.913C131.028 160.171 117.965 156.257 117.965 135.818C117.965 115.874 127.896 121.107 132.099 124.198C131.83 136.551 133.132 148.888 135.973 160.913Z" fill="#F9C795"/>
<path d="M231.532 126.299C231.194 144.018 229.624 160.089 222.26 175.747C214.303 192.968 201.109 205.87 181.836 205.87C162.415 205.87 149.526 193.244 141.289 175.747C133.748 159.405 132.318 142.275 132.099 124.198C131.687 105.786 133.575 85.3724 148.211 74.1724C151.013 81.2599 159.42 94.7758 181.836 94.7758C188.718 94.7758 194.281 94.817 198.937 95.0643C205.783 108.99 217.327 120.052 231.532 126.299Z" fill="#FDD7AD"/>
<path d="M245.707 135.818C245.707 156.257 232.644 160.171 227.699 160.913C230.393 149.576 231.681 137.951 231.532 126.299C235.987 128.26 240.643 129.725 245.418 130.667C245.63 132.376 245.727 134.097 245.707 135.818Z" fill="#F9C795"/>
<path d="M188.017 140.103C186.351 140.103 184.849 139.099 184.211 137.559C183.573 136.02 183.926 134.248 185.104 133.069L208.509 109.664C210.126 108.102 212.696 108.125 214.286 109.714C215.875 111.303 215.898 113.874 214.336 115.49L190.93 138.896C190.158 139.669 189.11 140.103 188.017 140.103Z" fill="#2980BA"/>
<path d="M258.069 1.23806e-05C231.188 -0.0164129 206.997 16.3119 196.959 41.2481H196.918C186.067 68.1251 194.041 98.9368 216.569 117.175C239.097 135.412 270.894 136.798 294.923 120.59C318.952 104.381 329.578 74.3805 321.106 46.6613C312.635 18.942 287.054 0.00646439 258.069 1.23806e-05Z" fill="#3B97D3"/>
<path d="M287.12 25.9604C262.849 35.8912 229.719 54.8052 213.607 87.4823C210.293 80.7835 208.586 73.4046 208.621 65.9311C208.637 47.3477 219.072 30.3426 235.632 21.9103C252.192 13.4781 272.082 15.0426 287.12 25.9604Z" fill="#FDD7AD"/>
<path d="M307.517 65.9311C307.512 88.9087 291.68 108.855 269.304 114.076C246.927 119.297 223.903 108.415 213.73 87.812C213.689 87.6884 213.607 87.606 213.607 87.4823C229.719 54.8053 262.849 35.8913 287.12 25.9604C299.937 35.2403 307.524 50.1069 307.517 65.9311Z" fill="#F9C795"/>
<path d="M258.069 119.5C228.484 119.5 204.5 95.5163 204.5 65.931C204.5 36.3457 228.484 12.3621 258.069 12.3621C287.654 12.3621 311.638 36.3457 311.638 65.931C311.604 95.5022 287.64 119.466 258.069 119.5ZM258.069 20.6034C233.035 20.6034 212.741 40.8973 212.741 65.931C212.741 90.9648 233.035 111.259 258.069 111.259C283.103 111.259 303.397 90.9648 303.397 65.931C303.367 40.9095 283.09 20.633 258.069 20.6034Z" fill="#285680"/>
</g>
<defs>
<clipPath id="clip0">
<rect width="239" height="239" fill="white" transform="translate(85)"/>
</clipPath>
</defs>
</svg>
