<svg width="200" height="189" viewBox="0 0 200 189" fill="none" xmlns="http://www.w3.org/2000/svg">
<path d="M0 21C66.2742 21 120 74.7258 120 141V188.797C53.7258 188.797 0 135.071 0 68.7966V21Z" fill="#4C5C59"/>
<path d="M71.8403 35.9517L76.4677 35.7756L80.2942 136.374L75.6669 136.55L71.8403 35.9517Z" fill="#FED35B"/>
<path d="M97.7819 89.7046C84.2816 92.8635 75.8983 106.368 79.0573 119.869C92.5575 116.71 100.941 103.205 97.7819 89.7046L97.7819 89.7046Z" fill="#FED35B"/>
<path d="M54.7333 91.3474C68.435 93.4683 77.8232 106.295 75.7023 119.997C62.0006 117.876 52.6124 105.049 54.7332 91.3474L54.7333 91.3474Z" fill="#FED35B"/>
<path d="M96.8579 65.4922C83.3576 68.6511 74.9744 82.156 78.1333 95.6563C91.6336 92.4974 100.017 78.9925 96.858 65.4922L96.8579 65.4922Z" fill="#FED35B"/>
<path d="M53.8093 67.135C67.5111 69.2559 76.8992 82.0825 74.7784 95.7843C61.0766 93.6635 51.6884 80.8368 53.8093 67.135L53.8093 67.135Z" fill="#FED35B"/>
<path d="M95.934 41.2798C82.4337 44.4387 74.0504 57.9436 77.2094 71.4439C90.7096 68.285 99.0929 54.7801 95.934 41.2798L95.934 41.2798Z" fill="#FED35B"/>
<path d="M73.0774 14.1504L73.0774 14.1504C60.8785 25.343 61.7711 42.5034 75.0711 52.4795C87.27 41.2868 86.3774 24.1262 73.0774 14.1504Z" fill="#FED35B"/>
<path d="M52.8852 42.9226C66.587 45.0434 75.9751 57.8701 73.8543 71.5719C60.1526 69.451 50.7643 56.6244 52.8852 42.9226L52.8852 42.9226Z" fill="#FED35B"/>
<path d="M158.291 95.5762L160.89 99.4114L77.5108 155.904L74.9122 152.069L158.291 95.5762Z" fill="#FED35B"/>
<path d="M126.343 145.976C116.525 136.187 100.629 136.211 90.8401 146.03C100.659 155.819 116.554 155.795 126.343 145.976L126.343 145.976Z" fill="#FEDA6F"/>
<path d="M102.189 110.304C107.633 123.056 101.709 137.806 88.9576 143.25C83.5139 130.498 89.4379 115.748 102.189 110.304L102.189 110.304Z" fill="#FEDA6F"/>
<path d="M146.407 132.391C136.588 122.602 120.692 122.626 110.903 132.445C120.722 142.234 136.617 142.21 146.407 132.391L146.407 132.391Z" fill="#FEDA6F"/>
<path d="M122.253 96.7193C127.697 109.471 121.773 124.221 109.021 129.665C103.577 116.913 109.501 102.163 122.253 96.7192L122.253 96.7193Z" fill="#FEDA6F"/>
<path d="M166.47 118.806C156.651 109.017 140.756 109.041 130.967 118.86C140.785 128.649 156.681 128.625 166.47 118.806L166.47 118.806Z" fill="#FEDA6F"/>
<path d="M177.414 85.0621L177.414 85.062C161.464 80.6249 147.37 90.455 145.934 107.018C161.884 111.456 175.978 101.625 177.414 85.0621Z" fill="#FEDA6F"/>
<path d="M142.316 83.1343C147.76 95.8859 141.836 110.636 129.084 116.08C123.64 103.328 129.564 88.5781 142.316 83.1343L142.316 83.1343Z" fill="#FEDA6F"/>
</svg>
