<svg width="154" height="168" viewBox="0 0 154 168" fill="none" xmlns="http://www.w3.org/2000/svg">
<path d="M0 0C66.2742 0 120 53.7258 120 120V167.797C53.7258 167.797 0 114.071 0 47.7966V0Z" fill="#4C5C59"/>
<path d="M153.412 69.3295C153.412 55.572 142.28 44.4185 128.547 44.4185C128.438 44.4185 128.33 44.419 128.222 44.4208C126.674 44.4426 125.263 43.5946 124.536 42.2255C120.357 34.3583 112.094 29 102.578 29C93.0599 29 84.7966 34.36 80.6182 42.229C79.8648 43.6476 78.3861 44.4956 76.7828 44.4357C76.4782 44.4242 76.1725 44.4185 75.8656 44.4185C62.1332 44.4185 51 55.5714 51 69.3295C51 74.2738 52.4401 78.879 54.9204 82.7525C56.5083 85.2322 56.637 88.3589 55.3474 91.0072C53.4682 94.8669 52.5551 99.2844 52.928 103.947C53.8866 115.938 63.4779 125.636 75.4375 126.707C77.7844 126.917 80.0699 126.798 82.256 126.393C83.9927 126.071 85.7615 126.524 87.1453 127.623C91.3853 130.989 96.747 133 102.577 133C108.347 133 113.654 131.029 117.873 127.725C119.239 126.656 120.969 126.2 122.68 126.482C124.851 126.839 127.116 126.915 129.441 126.659C141.291 125.354 150.667 115.606 151.501 103.693C151.825 99.0766 150.889 94.7074 149.006 90.8904C147.716 88.276 147.959 85.1579 149.525 82.6995C151.985 78.8364 153.412 74.2508 153.412 69.3295Z" fill="#E19974"/>
<path d="M69.1424 109.248C68.7688 104.585 69.6842 100.168 71.5662 96.3081C72.8575 93.6598 72.7292 90.533 71.1384 88.0534C68.6531 84.18 67.2109 79.5748 67.2109 74.6305C67.2109 60.873 78.3637 49.7196 92.1217 49.7196C92.4292 49.7196 92.736 49.7254 93.0406 49.7369C94.6463 49.7968 96.1282 48.9493 96.8829 47.5301C100.946 39.8915 108.885 34.6311 118.067 34.3289C113.832 30.9954 108.481 29 102.673 29C93.1379 29 84.8596 34.36 80.6735 42.2289C79.9188 43.6475 78.4374 44.4955 76.8312 44.4356C76.526 44.4241 76.2198 44.4184 75.9123 44.4184C62.1549 44.4184 51.0015 55.5712 51.0015 69.3292C51.0015 74.2735 52.4442 78.8787 54.929 82.7522C56.5198 85.2318 56.6487 88.3585 55.3568 91.0068C53.4742 94.8665 52.5594 99.284 52.933 103.947C53.8933 115.937 63.5021 125.635 75.4834 126.707C76.5364 126.801 77.5911 126.828 78.6159 126.794C73.3101 122.617 69.7095 116.329 69.1424 109.248Z" fill="#DC8758"/>
<path d="M78.5776 83.2836C78.1389 83.2836 77.6927 83.2162 77.2528 83.0746C74.9833 82.3434 73.7358 79.911 74.4669 77.6409L75.2948 75.0703C78.326 65.6573 85.7827 58.3146 95.2412 55.4285L97.7496 54.6634C100.03 53.9667 102.444 55.2523 103.14 57.5333C103.836 59.8143 102.551 62.2272 100.27 62.9232L97.7612 63.6883C91.0056 65.7494 85.6791 70.9937 83.5144 77.7169L82.6865 80.2875C82.0975 82.1177 80.402 83.2836 78.5776 83.2836Z" fill="#DC8758"/>
<path d="M115.495 112.276C113.765 112.276 112.132 111.229 111.469 109.52C110.605 107.297 111.708 104.795 113.931 103.932L114.2 103.827C118.008 102.35 120.469 98.7555 120.469 94.6719C120.469 92.2867 122.401 90.354 124.787 90.354C127.172 90.354 129.105 92.2867 129.105 94.6719C129.105 102.347 124.481 109.101 117.325 111.878L117.057 111.982C116.543 112.181 116.014 112.276 115.495 112.276Z" fill="#DC8758"/>
<path d="M86.0713 109.239C85.6378 109.239 85.1968 109.174 84.7615 109.036C80.709 107.747 77.6744 104.514 76.6433 100.388L76.1879 98.5661C75.6093 96.2523 77.0158 93.908 79.3296 93.3294C81.6411 92.7508 83.9866 94.1573 84.5658 96.4711L85.0218 98.2938C85.3171 99.4746 86.2204 100.437 87.3793 100.805C89.6517 101.528 90.9085 103.957 90.186 106.229C89.601 108.066 87.9021 109.239 86.0713 109.239Z" fill="#DC8758"/>
</svg>
