<svg width="286" height="363" viewBox="0 0 286 363" fill="none" xmlns="http://www.w3.org/2000/svg">
<path d="M0 83H80.2425C146.517 83 200.242 136.726 200.242 203V363H120C53.7257 363 0 309.274 0 243V83Z" fill="#4C5C59"/>
<g clip-path="url(#clip0)">
<path d="M150.056 91.2005L131.761 148.482L151.244 154.704L169.499 97.5479L150.056 91.2005Z" fill="#3D7A94"/>
<path d="M138.61 201.837L117.605 267.601C115.5 274.194 108.448 277.832 101.856 275.726C95.2626 273.62 91.6251 266.569 93.7311 259.976L114.736 194.211L129.639 188.738L138.61 201.837Z" fill="#3D7A94"/>
<path d="M144.542 183.264L138.61 201.836L114.736 194.211L120.668 175.639L135.57 170.165L144.542 183.264Z" fill="#0E4675"/>
<path d="M150.474 164.692L144.542 183.264L120.668 175.639L126.599 157.067L141.503 151.593L150.474 164.692Z" fill="#3D7A94"/>
<path d="M150.474 164.692L156.406 146.12L132.532 138.495L126.6 157.067L150.474 164.692Z" fill="#0E4675"/>
<path d="M225.17 88.318L163.379 83.9329L110.486 51.6886C113.098 43.5122 117.447 35.8854 120.925 36.9961L225.18 70.2946C228.658 71.4056 227.781 80.1412 225.17 88.318Z" fill="#9AE1D3"/>
<path d="M135.238 77.6408C131.962 87.8981 141.555 100.125 156.665 104.951C171.775 109.778 186.681 105.375 189.957 95.1177L165.563 77.0928L135.238 77.6408Z" fill="#0E4675"/>
<path d="M110.486 51.6887C107.867 59.8726 106.992 68.6194 110.47 69.7301L214.725 103.029C218.203 104.139 222.56 96.5054 225.17 88.3179L110.486 51.6887Z" fill="#83C7C3"/>
</g>
<defs>
<clipPath id="clip0">
<rect width="208.166" height="208.166" fill="white" transform="translate(4.92554 95.8276) rotate(-27.2869)"/>
</clipPath>
</defs>
</svg>
